M48
METRIC,TZ
T1C0.300
T2C0.400
T3C1.000
%
G90
G05
T1
X101100Y-104600
X101100Y-106400
X102000Y-105500
X102900Y-104600
X102900Y-106400
T2
X86000Y-73500
X86000Y-75500
X86000Y-77500
X86000Y-79500
X86000Y-81500
X86000Y-83500
X88000Y-73500
X88876Y-77889
X89500Y-83500
X89834Y-112703
X90000Y-73500
X90000Y-94000
X90500Y-118000
X90500Y-120000
X90500Y-122000
X90500Y-126000
X90750Y-81250
X91024Y-76375
X91750Y-81000
X91850Y-104350
X91850Y-105550
X91850Y-110350
X91850Y-111550
X92000Y-73500
X92000Y-94000
X92000Y-98750
X92500Y-118000
X92500Y-120000
X92500Y-124000
X92500Y-126000
X92750Y-80500
X93000Y-101000
X93000Y-115000
X93319Y-77107
X94000Y-73500
X94000Y-94000
X94500Y-118000
X94500Y-122000
X94500Y-124000
X94500Y-126000
X95000Y-82750
X95500Y-117100
X96000Y-73500
X96000Y-94000
X96314Y-98140
X96400Y-99850
X96500Y-120000
X96500Y-122000
X96500Y-124000
X96500Y-126000
X96584Y-102679
X96750Y-110800
X97600Y-116100
X97608Y-96964
X97639Y-104924
X98000Y-73500
X98000Y-94000
X98250Y-109000
X98330Y-95210
X98337Y-97407
X98500Y-118000
X98500Y-120000
X98500Y-122000
X98500Y-124000
X98500Y-126000
X98600Y-98800
X98900Y-117100
X99000Y-100750
X99250Y-113250
X100000Y-73500
X100000Y-94000
X100000Y-100750
X100800Y-100900
X100800Y-101900
X101400Y-98800
X101750Y-110250
X101750Y-125000
X102000Y-73500
X102000Y-94000
X102274Y-98112
X103750Y-115250
X104000Y-73500
X104000Y-94000
X104209Y-96177
X104250Y-113000
X104600Y-117100
X105000Y-118000
X105000Y-120000
X105000Y-122000
X105000Y-124000
X105000Y-126000
X105003Y-75806
X105500Y-107125
X105900Y-104400
X106000Y-73500
X106000Y-94000
X106000Y-109250
X106100Y-98800
X107000Y-101000
X107000Y-115000
X107000Y-118000
X107000Y-120000
X107000Y-122000
X107000Y-124000
X107000Y-126000
X107270Y-76519
X107983Y-81817
X108000Y-73500
X108000Y-94000
X108150Y-104350
X108150Y-110350
X108150Y-111450
X108161Y-77920
X108798Y-79932
X109000Y-118000
X109000Y-120000
X109000Y-122000
X109000Y-124000
X109000Y-126000
X109150Y-106500
X110000Y-73500
X110000Y-94000
X110051Y-83735
X110500Y-97000
X111000Y-106000
X111000Y-108000
X111000Y-110000
X111000Y-112000
X111000Y-114000
X111000Y-116000
X111000Y-118000
X111000Y-120000
X111000Y-122000
X111000Y-124000
X111000Y-126000
X111727Y-82504
X112000Y-73500
X114000Y-73500
X114000Y-75500
X114000Y-77500
X114000Y-79500
X114000Y-81500
X114000Y-83500
T3
X87300Y-86450
X87300Y-88990
X87300Y-91530
X87300Y-94070
X87300Y-96610
X87300Y-99150
X87300Y-101690
X87300Y-104230
X87300Y-106770
X87300Y-109310
X87300Y-111850
X87300Y-114390
X87300Y-116930
X87300Y-119470
X87300Y-122010
X87300Y-124550
X112700Y-86450
X112700Y-88990
X112700Y-91530
X112700Y-94070
X112700Y-96610
X112700Y-99150
X112700Y-101690
X112700Y-104230
X112700Y-106770
X112700Y-109310
X112700Y-111850
X112700Y-114390
X112700Y-116930
X112700Y-119470
X112700Y-122010
X112700Y-124550
T0
M30
