G04 #@! TF.FileFunction,Legend,Bot*
%FSLAX46Y46*%
G04 Gerber Fmt 4.6, Leading zero omitted, Abs format (unit mm)*
G04 Created by KiCad (PCBNEW 4.0.7) date 07/17/18 20:37:52*
%MOMM*%
%LPD*%
G01*
G04 APERTURE LIST*
%ADD10C,0.100000*%
%ADD11C,0.400000*%
%ADD12C,0.300000*%
%ADD13C,0.125000*%
%ADD14C,0.200000*%
G04 APERTURE END LIST*
D10*
D11*
X99000000Y-76800000D02*
X100000000Y-75500000D01*
X101000000Y-76800000D02*
X100000000Y-75500000D01*
D12*
X109535714Y-87178571D02*
X110250000Y-87178571D01*
X110250000Y-85678571D01*
X89535714Y-87178571D02*
X90035714Y-86464286D01*
X90392857Y-87178571D02*
X90392857Y-85678571D01*
X89821429Y-85678571D01*
X89678571Y-85750000D01*
X89607143Y-85821429D01*
X89535714Y-85964286D01*
X89535714Y-86178571D01*
X89607143Y-86321429D01*
X89678571Y-86392857D01*
X89821429Y-86464286D01*
X90392857Y-86464286D01*
D13*
X100940475Y-126926190D02*
X101107142Y-126688095D01*
X101226189Y-126926190D02*
X101226189Y-126426190D01*
X101035713Y-126426190D01*
X100988094Y-126450000D01*
X100964285Y-126473810D01*
X100940475Y-126521429D01*
X100940475Y-126592857D01*
X100964285Y-126640476D01*
X100988094Y-126664286D01*
X101035713Y-126688095D01*
X101226189Y-126688095D01*
X100726189Y-126664286D02*
X100559523Y-126664286D01*
X100488094Y-126926190D02*
X100726189Y-126926190D01*
X100726189Y-126426190D01*
X100488094Y-126426190D01*
X100345237Y-126426190D02*
X100178570Y-126926190D01*
X100011904Y-126426190D01*
X99202381Y-126926190D02*
X99488095Y-126926190D01*
X99345238Y-126926190D02*
X99345238Y-126426190D01*
X99392857Y-126497619D01*
X99440476Y-126545238D01*
X99488095Y-126569048D01*
X98773810Y-126926190D02*
X98773810Y-126664286D01*
X98797619Y-126616667D01*
X98845238Y-126592857D01*
X98940476Y-126592857D01*
X98988095Y-126616667D01*
X98773810Y-126902381D02*
X98821429Y-126926190D01*
X98940476Y-126926190D01*
X98988095Y-126902381D01*
X99011905Y-126854762D01*
X99011905Y-126807143D01*
X98988095Y-126759524D01*
X98940476Y-126735714D01*
X98821429Y-126735714D01*
X98773810Y-126711905D01*
D12*
X101928571Y-126178571D02*
X102428571Y-125464286D01*
X102785714Y-126178571D02*
X102785714Y-124678571D01*
X102214286Y-124678571D01*
X102071428Y-124750000D01*
X102000000Y-124821429D01*
X101928571Y-124964286D01*
X101928571Y-125178571D01*
X102000000Y-125321429D01*
X102071428Y-125392857D01*
X102214286Y-125464286D01*
X102785714Y-125464286D01*
X100642857Y-126178571D02*
X100642857Y-125392857D01*
X100714286Y-125250000D01*
X100857143Y-125178571D01*
X101142857Y-125178571D01*
X101285714Y-125250000D01*
X100642857Y-126107143D02*
X100785714Y-126178571D01*
X101142857Y-126178571D01*
X101285714Y-126107143D01*
X101357143Y-125964286D01*
X101357143Y-125821429D01*
X101285714Y-125678571D01*
X101142857Y-125607143D01*
X100785714Y-125607143D01*
X100642857Y-125535714D01*
X99285714Y-126178571D02*
X99285714Y-124678571D01*
X99285714Y-126107143D02*
X99428571Y-126178571D01*
X99714285Y-126178571D01*
X99857143Y-126107143D01*
X99928571Y-126035714D01*
X100000000Y-125892857D01*
X100000000Y-125464286D01*
X99928571Y-125321429D01*
X99857143Y-125250000D01*
X99714285Y-125178571D01*
X99428571Y-125178571D01*
X99285714Y-125250000D01*
X98571428Y-126178571D02*
X98571428Y-125178571D01*
X98571428Y-124678571D02*
X98642857Y-124750000D01*
X98571428Y-124821429D01*
X98500000Y-124750000D01*
X98571428Y-124678571D01*
X98571428Y-124821429D01*
X97642856Y-126178571D02*
X97785714Y-126107143D01*
X97857142Y-126035714D01*
X97928571Y-125892857D01*
X97928571Y-125464286D01*
X97857142Y-125321429D01*
X97785714Y-125250000D01*
X97642856Y-125178571D01*
X97428571Y-125178571D01*
X97285714Y-125250000D01*
X97214285Y-125321429D01*
X97142856Y-125464286D01*
X97142856Y-125892857D01*
X97214285Y-126035714D01*
X97285714Y-126107143D01*
X97428571Y-126178571D01*
X97642856Y-126178571D01*
D11*
X101500000Y-88547116D02*
X104000000Y-91047116D01*
D14*
X102500000Y-92047116D02*
X102500000Y-90297116D01*
D11*
X101500000Y-86547116D02*
X101500000Y-88547116D01*
X104000000Y-91047116D02*
X104000000Y-88547116D01*
D14*
X102976190Y-93752381D02*
X103309524Y-93276190D01*
X103547619Y-93752381D02*
X103547619Y-92752381D01*
X103166666Y-92752381D01*
X103071428Y-92800000D01*
X103023809Y-92847619D01*
X102976190Y-92942857D01*
X102976190Y-93085714D01*
X103023809Y-93180952D01*
X103071428Y-93228571D01*
X103166666Y-93276190D01*
X103547619Y-93276190D01*
X102357143Y-92752381D02*
X102166666Y-92752381D01*
X102071428Y-92800000D01*
X101976190Y-92895238D01*
X101928571Y-93085714D01*
X101928571Y-93419048D01*
X101976190Y-93609524D01*
X102071428Y-93704762D01*
X102166666Y-93752381D01*
X102357143Y-93752381D01*
X102452381Y-93704762D01*
X102547619Y-93609524D01*
X102595238Y-93419048D01*
X102595238Y-93085714D01*
X102547619Y-92895238D01*
X102452381Y-92800000D01*
X102357143Y-92752381D01*
X100928571Y-93657143D02*
X100976190Y-93704762D01*
X101119047Y-93752381D01*
X101214285Y-93752381D01*
X101357143Y-93704762D01*
X101452381Y-93609524D01*
X101500000Y-93514286D01*
X101547619Y-93323810D01*
X101547619Y-93180952D01*
X101500000Y-92990476D01*
X101452381Y-92895238D01*
X101357143Y-92800000D01*
X101214285Y-92752381D01*
X101119047Y-92752381D01*
X100976190Y-92800000D01*
X100928571Y-92847619D01*
X100500000Y-93752381D02*
X100500000Y-92752381D01*
X99928571Y-93752381D02*
X100357143Y-93180952D01*
X99928571Y-92752381D02*
X100500000Y-93323810D01*
X99500000Y-93228571D02*
X99166666Y-93228571D01*
X99023809Y-93752381D02*
X99500000Y-93752381D01*
X99500000Y-92752381D01*
X99023809Y-92752381D01*
X98738095Y-92752381D02*
X98166666Y-92752381D01*
X98452381Y-93752381D02*
X98452381Y-92752381D01*
X97261904Y-93752381D02*
X97595238Y-93276190D01*
X97833333Y-93752381D02*
X97833333Y-92752381D01*
X97452380Y-92752381D01*
X97357142Y-92800000D01*
X97309523Y-92847619D01*
X97261904Y-92942857D01*
X97261904Y-93085714D01*
X97309523Y-93180952D01*
X97357142Y-93228571D01*
X97452380Y-93276190D01*
X97833333Y-93276190D01*
X96642857Y-93276190D02*
X96642857Y-93752381D01*
X96976190Y-92752381D02*
X96642857Y-93276190D01*
X96309523Y-92752381D01*
D13*
X98540475Y-95226190D02*
X98707142Y-94988095D01*
X98826189Y-95226190D02*
X98826189Y-94726190D01*
X98635713Y-94726190D01*
X98588094Y-94750000D01*
X98564285Y-94773810D01*
X98540475Y-94821429D01*
X98540475Y-94892857D01*
X98564285Y-94940476D01*
X98588094Y-94964286D01*
X98635713Y-94988095D01*
X98826189Y-94988095D01*
X98326189Y-94964286D02*
X98159523Y-94964286D01*
X98088094Y-95226190D02*
X98326189Y-95226190D01*
X98326189Y-94726190D01*
X98088094Y-94726190D01*
X97945237Y-94726190D02*
X97778570Y-95226190D01*
X97611904Y-94726190D01*
X96802381Y-95226190D02*
X97088095Y-95226190D01*
X96945238Y-95226190D02*
X96945238Y-94726190D01*
X96992857Y-94797619D01*
X97040476Y-94845238D01*
X97088095Y-94869048D01*
X96373810Y-95226190D02*
X96373810Y-94964286D01*
X96397619Y-94916667D01*
X96445238Y-94892857D01*
X96540476Y-94892857D01*
X96588095Y-94916667D01*
X96373810Y-95202381D02*
X96421429Y-95226190D01*
X96540476Y-95226190D01*
X96588095Y-95202381D01*
X96611905Y-95154762D01*
X96611905Y-95107143D01*
X96588095Y-95059524D01*
X96540476Y-95035714D01*
X96421429Y-95035714D01*
X96373810Y-95011905D01*
D14*
X102885714Y-95252381D02*
X103219048Y-94776190D01*
X103457143Y-95252381D02*
X103457143Y-94252381D01*
X103076190Y-94252381D01*
X102980952Y-94300000D01*
X102933333Y-94347619D01*
X102885714Y-94442857D01*
X102885714Y-94585714D01*
X102933333Y-94680952D01*
X102980952Y-94728571D01*
X103076190Y-94776190D01*
X103457143Y-94776190D01*
X102028571Y-95252381D02*
X102028571Y-94728571D01*
X102076190Y-94633333D01*
X102171428Y-94585714D01*
X102361905Y-94585714D01*
X102457143Y-94633333D01*
X102028571Y-95204762D02*
X102123809Y-95252381D01*
X102361905Y-95252381D01*
X102457143Y-95204762D01*
X102504762Y-95109524D01*
X102504762Y-95014286D01*
X102457143Y-94919048D01*
X102361905Y-94871429D01*
X102123809Y-94871429D01*
X102028571Y-94823810D01*
X101123809Y-95252381D02*
X101123809Y-94252381D01*
X101123809Y-95204762D02*
X101219047Y-95252381D01*
X101409524Y-95252381D01*
X101504762Y-95204762D01*
X101552381Y-95157143D01*
X101600000Y-95061905D01*
X101600000Y-94776190D01*
X101552381Y-94680952D01*
X101504762Y-94633333D01*
X101409524Y-94585714D01*
X101219047Y-94585714D01*
X101123809Y-94633333D01*
X100647619Y-95252381D02*
X100647619Y-94585714D01*
X100647619Y-94252381D02*
X100695238Y-94300000D01*
X100647619Y-94347619D01*
X100600000Y-94300000D01*
X100647619Y-94252381D01*
X100647619Y-94347619D01*
X100028572Y-95252381D02*
X100123810Y-95204762D01*
X100171429Y-95157143D01*
X100219048Y-95061905D01*
X100219048Y-94776190D01*
X100171429Y-94680952D01*
X100123810Y-94633333D01*
X100028572Y-94585714D01*
X99885714Y-94585714D01*
X99790476Y-94633333D01*
X99742857Y-94680952D01*
X99695238Y-94776190D01*
X99695238Y-95061905D01*
X99742857Y-95157143D01*
X99790476Y-95204762D01*
X99885714Y-95252381D01*
X100028572Y-95252381D01*
X97500000Y-90297116D02*
X97500000Y-92047116D01*
D12*
X101857143Y-92154259D02*
X101642857Y-92225687D01*
X101285714Y-92225687D01*
X101142857Y-92154259D01*
X101071428Y-92082830D01*
X101000000Y-91939973D01*
X101000000Y-91797116D01*
X101071428Y-91654259D01*
X101142857Y-91582830D01*
X101285714Y-91511402D01*
X101571428Y-91439973D01*
X101714286Y-91368545D01*
X101785714Y-91297116D01*
X101857143Y-91154259D01*
X101857143Y-91011402D01*
X101785714Y-90868545D01*
X101714286Y-90797116D01*
X101571428Y-90725687D01*
X101214286Y-90725687D01*
X101000000Y-90797116D01*
X99857143Y-91439973D02*
X100357143Y-91439973D01*
X100357143Y-92225687D02*
X100357143Y-90725687D01*
X99642857Y-90725687D01*
X99071429Y-90725687D02*
X99071429Y-91939973D01*
X99000001Y-92082830D01*
X98928572Y-92154259D01*
X98785715Y-92225687D01*
X98500001Y-92225687D01*
X98357143Y-92154259D01*
X98285715Y-92082830D01*
X98214286Y-91939973D01*
X98214286Y-90725687D01*
D11*
X94500000Y-90047116D02*
X94500000Y-87547116D01*
X96000000Y-88547116D02*
X96000000Y-91047116D01*
X96000000Y-91047116D02*
X98500000Y-88547116D01*
X94500000Y-90047116D02*
X96000000Y-88547116D01*
X98500000Y-88547116D02*
X98500000Y-86547116D01*
X98250000Y-78047116D02*
X97750000Y-79047116D01*
X97750000Y-79047116D02*
X97250000Y-80797116D01*
X100000000Y-75547116D02*
X100000000Y-85047116D01*
X99000000Y-76797116D02*
X98250000Y-78047116D01*
X97000000Y-82047116D02*
X97250000Y-80797116D01*
X96750000Y-83797116D02*
X97000000Y-82047116D01*
X103500000Y-85547116D02*
X103250000Y-83797116D01*
X103000000Y-82047116D02*
X102750000Y-80797116D01*
X103250000Y-83797116D02*
X103000000Y-82047116D01*
X96500000Y-85547116D02*
X96750000Y-83797116D01*
X101750000Y-78047116D02*
X101000000Y-76797116D01*
X102750000Y-80797116D02*
X102250000Y-79047116D01*
X102250000Y-79047116D02*
X101750000Y-78047116D01*
D14*
X100000000Y-86297116D02*
X100000000Y-90047116D01*
D11*
X104000000Y-88547116D02*
X105500000Y-90047116D01*
X105500000Y-90047116D02*
X105500000Y-87547116D01*
X100000000Y-85047116D02*
X101500000Y-86547116D01*
X105500000Y-87547116D02*
X102500000Y-84547116D01*
X100000000Y-85047116D02*
X98500000Y-86547116D01*
X97500000Y-84547116D02*
X94500000Y-87547116D01*
M02*
