G04 #@! TF.FileFunction,Copper,L2,Bot,Signal*
%FSLAX46Y46*%
G04 Gerber Fmt 4.6, Leading zero omitted, Abs format (unit mm)*
G04 Created by KiCad (PCBNEW 4.0.7) date 07/17/18 20:37:52*
%MOMM*%
%LPD*%
G01*
G04 APERTURE LIST*
%ADD10C,0.100000*%
%ADD11R,1.700000X1.700000*%
%ADD12O,1.700000X1.700000*%
%ADD13C,0.600000*%
%ADD14C,0.500000*%
%ADD15C,0.400000*%
%ADD16C,0.200000*%
G04 APERTURE END LIST*
D10*
D11*
X112700000Y-86450000D03*
D12*
X112700000Y-88990000D03*
X112700000Y-91530000D03*
X112700000Y-94070000D03*
X112700000Y-96610000D03*
X112700000Y-99150000D03*
X112700000Y-101690000D03*
X112700000Y-104230000D03*
X112700000Y-106770000D03*
X112700000Y-109310000D03*
X112700000Y-111850000D03*
X112700000Y-114390000D03*
X112700000Y-116930000D03*
X112700000Y-119470000D03*
X112700000Y-122010000D03*
X112700000Y-124550000D03*
D11*
X87300000Y-86450000D03*
D12*
X87300000Y-88990000D03*
X87300000Y-91530000D03*
X87300000Y-94070000D03*
X87300000Y-96610000D03*
X87300000Y-99150000D03*
X87300000Y-101690000D03*
X87300000Y-104230000D03*
X87300000Y-106770000D03*
X87300000Y-109310000D03*
X87300000Y-111850000D03*
X87300000Y-114390000D03*
X87300000Y-116930000D03*
X87300000Y-119470000D03*
X87300000Y-122010000D03*
X87300000Y-124550000D03*
D13*
X102000000Y-113250000D03*
X96864852Y-100364853D03*
X98066942Y-101566942D03*
X100000000Y-124000000D03*
X103000000Y-124000000D03*
X97000000Y-124000000D03*
X97000000Y-123000000D03*
X97000000Y-125000000D03*
X103000000Y-125000000D03*
X103000000Y-123000000D03*
X98000000Y-120500000D03*
X105000000Y-101000000D03*
X107000000Y-101000000D03*
X107000000Y-103000000D03*
X109000000Y-103000000D03*
X109000000Y-101000000D03*
X98000000Y-102750000D03*
X97000000Y-102750000D03*
X91000000Y-83000000D03*
X109000000Y-83000000D03*
X109000000Y-85000000D03*
X109000000Y-87000000D03*
X109000000Y-97000000D03*
X107000000Y-97000000D03*
X105000000Y-97000000D03*
X103000000Y-97000000D03*
X101000000Y-97000000D03*
X111000000Y-83000000D03*
X109000000Y-85000000D03*
X109000000Y-89000000D03*
X109000000Y-91000000D03*
X109000000Y-93000000D03*
X109000000Y-95000000D03*
X109000000Y-97000000D03*
X109000000Y-99000000D03*
X107000000Y-99000000D03*
X105000000Y-99000000D03*
X103000000Y-99000000D03*
X101000000Y-99000000D03*
X99000000Y-99000000D03*
X97000000Y-99000000D03*
X95000000Y-99000000D03*
X93000000Y-99000000D03*
X91000000Y-99000000D03*
X99000000Y-97000000D03*
X97000000Y-97000000D03*
X95000000Y-97000000D03*
X93000000Y-97000000D03*
X91000000Y-97000000D03*
X91000000Y-95000000D03*
X91000000Y-93000000D03*
X91000000Y-91000000D03*
X91000000Y-89000000D03*
X91000000Y-87000000D03*
X91000000Y-85000000D03*
X89000000Y-83000000D03*
X87000000Y-83000000D03*
X87000000Y-81000000D03*
X87000000Y-79000000D03*
X87000000Y-77000000D03*
X87000000Y-75000000D03*
X89000000Y-75000000D03*
X91000000Y-75000000D03*
X93000000Y-75000000D03*
X95000000Y-75000000D03*
X97000000Y-75000000D03*
X99000000Y-75000000D03*
X101000000Y-75000000D03*
X103000000Y-75000000D03*
X105000000Y-75000000D03*
X107000000Y-75000000D03*
X109000000Y-75000000D03*
X111000000Y-75000000D03*
X113000000Y-75000000D03*
X113000000Y-77000000D03*
X113000000Y-79000000D03*
X113000000Y-81000000D03*
X113000000Y-83000000D03*
X109000000Y-113000000D03*
X104205043Y-106460728D03*
X96400000Y-111000000D03*
X104000000Y-111225384D03*
X104250000Y-110000000D03*
D14*
X100000000Y-107500000D03*
X99100000Y-108400000D03*
X100900000Y-106600000D03*
X100900000Y-108400000D03*
X99100000Y-106600000D03*
D13*
X105000000Y-121000000D03*
X107000000Y-121000000D03*
X107000000Y-119000000D03*
X105000000Y-119000000D03*
X105000000Y-117000000D03*
X107000000Y-117000000D03*
X107000000Y-115000000D03*
X105000000Y-115000000D03*
X105000000Y-113000000D03*
X107000000Y-113000000D03*
X95000000Y-121000000D03*
X93000000Y-121000000D03*
X93000000Y-119000000D03*
X95000000Y-119000000D03*
X95000000Y-117000000D03*
X93000000Y-117000000D03*
X93000000Y-115000000D03*
X95000000Y-115000000D03*
X95000000Y-113000000D03*
X93000000Y-113000000D03*
X109000000Y-115000000D03*
X109000000Y-117000000D03*
X109000000Y-119000000D03*
X109000000Y-121000000D03*
X91000000Y-113000000D03*
X91000000Y-115000000D03*
X91000000Y-117000000D03*
X91000000Y-119000000D03*
X91000000Y-121000000D03*
X105000000Y-125000000D03*
X107000000Y-125000000D03*
X109000000Y-125000000D03*
X109000000Y-123000000D03*
X107000000Y-123000000D03*
X105000000Y-123000000D03*
X95000000Y-125000000D03*
X93000000Y-125000000D03*
X91000000Y-125000000D03*
X91000000Y-123000000D03*
X93000000Y-123000000D03*
X95000000Y-123000000D03*
X95000000Y-111294728D03*
X94800774Y-108319535D03*
X95000000Y-104500000D03*
X98000000Y-117000000D03*
X97250000Y-113250000D03*
X101250000Y-102750000D03*
X101250000Y-103750000D03*
D15*
X98066942Y-101566942D02*
X98066941Y-101566942D01*
X98066941Y-101566942D02*
X96864852Y-100364853D01*
D16*
G36*
X114625000Y-127125000D02*
X85375000Y-127125000D01*
X85375000Y-124550000D01*
X111527470Y-124550000D01*
X111615009Y-124990086D01*
X111864297Y-125363173D01*
X112237384Y-125612461D01*
X112677470Y-125700000D01*
X112722530Y-125700000D01*
X113162616Y-125612461D01*
X113535703Y-125363173D01*
X113784991Y-124990086D01*
X113872530Y-124550000D01*
X113784991Y-124109914D01*
X113535703Y-123736827D01*
X113162616Y-123487539D01*
X112722530Y-123400000D01*
X112677470Y-123400000D01*
X112237384Y-123487539D01*
X111864297Y-123736827D01*
X111615009Y-124109914D01*
X111527470Y-124550000D01*
X85375000Y-124550000D01*
X85375000Y-122010000D01*
X86127470Y-122010000D01*
X86215009Y-122450086D01*
X86464297Y-122823173D01*
X86837384Y-123072461D01*
X87277470Y-123160000D01*
X87322530Y-123160000D01*
X87762616Y-123072461D01*
X88135703Y-122823173D01*
X88384991Y-122450086D01*
X88472530Y-122010000D01*
X111527470Y-122010000D01*
X111615009Y-122450086D01*
X111864297Y-122823173D01*
X112237384Y-123072461D01*
X112677470Y-123160000D01*
X112722530Y-123160000D01*
X113162616Y-123072461D01*
X113535703Y-122823173D01*
X113784991Y-122450086D01*
X113872530Y-122010000D01*
X113784991Y-121569914D01*
X113535703Y-121196827D01*
X113162616Y-120947539D01*
X112722530Y-120860000D01*
X112677470Y-120860000D01*
X112237384Y-120947539D01*
X111864297Y-121196827D01*
X111615009Y-121569914D01*
X111527470Y-122010000D01*
X88472530Y-122010000D01*
X88384991Y-121569914D01*
X88135703Y-121196827D01*
X87762616Y-120947539D01*
X87322530Y-120860000D01*
X87277470Y-120860000D01*
X86837384Y-120947539D01*
X86464297Y-121196827D01*
X86215009Y-121569914D01*
X86127470Y-122010000D01*
X85375000Y-122010000D01*
X85375000Y-119470000D01*
X86127470Y-119470000D01*
X86215009Y-119910086D01*
X86464297Y-120283173D01*
X86837384Y-120532461D01*
X87277470Y-120620000D01*
X87322530Y-120620000D01*
X87762616Y-120532461D01*
X88135703Y-120283173D01*
X88384991Y-119910086D01*
X88472530Y-119470000D01*
X111527470Y-119470000D01*
X111615009Y-119910086D01*
X111864297Y-120283173D01*
X112237384Y-120532461D01*
X112677470Y-120620000D01*
X112722530Y-120620000D01*
X113162616Y-120532461D01*
X113535703Y-120283173D01*
X113784991Y-119910086D01*
X113872530Y-119470000D01*
X113784991Y-119029914D01*
X113535703Y-118656827D01*
X113162616Y-118407539D01*
X112722530Y-118320000D01*
X112677470Y-118320000D01*
X112237384Y-118407539D01*
X111864297Y-118656827D01*
X111615009Y-119029914D01*
X111527470Y-119470000D01*
X88472530Y-119470000D01*
X88384991Y-119029914D01*
X88135703Y-118656827D01*
X87762616Y-118407539D01*
X87322530Y-118320000D01*
X87277470Y-118320000D01*
X86837384Y-118407539D01*
X86464297Y-118656827D01*
X86215009Y-119029914D01*
X86127470Y-119470000D01*
X85375000Y-119470000D01*
X85375000Y-116930000D01*
X86127470Y-116930000D01*
X86215009Y-117370086D01*
X86464297Y-117743173D01*
X86837384Y-117992461D01*
X87277470Y-118080000D01*
X87322530Y-118080000D01*
X87762616Y-117992461D01*
X88135703Y-117743173D01*
X88384991Y-117370086D01*
X88472530Y-116930000D01*
X111527470Y-116930000D01*
X111615009Y-117370086D01*
X111864297Y-117743173D01*
X112237384Y-117992461D01*
X112677470Y-118080000D01*
X112722530Y-118080000D01*
X113162616Y-117992461D01*
X113535703Y-117743173D01*
X113784991Y-117370086D01*
X113872530Y-116930000D01*
X113784991Y-116489914D01*
X113535703Y-116116827D01*
X113162616Y-115867539D01*
X112722530Y-115780000D01*
X112677470Y-115780000D01*
X112237384Y-115867539D01*
X111864297Y-116116827D01*
X111615009Y-116489914D01*
X111527470Y-116930000D01*
X88472530Y-116930000D01*
X88384991Y-116489914D01*
X88135703Y-116116827D01*
X87762616Y-115867539D01*
X87322530Y-115780000D01*
X87277470Y-115780000D01*
X86837384Y-115867539D01*
X86464297Y-116116827D01*
X86215009Y-116489914D01*
X86127470Y-116930000D01*
X85375000Y-116930000D01*
X85375000Y-114390000D01*
X86127470Y-114390000D01*
X86215009Y-114830086D01*
X86464297Y-115203173D01*
X86837384Y-115452461D01*
X87277470Y-115540000D01*
X87322530Y-115540000D01*
X87762616Y-115452461D01*
X88135703Y-115203173D01*
X88384991Y-114830086D01*
X88472530Y-114390000D01*
X111527470Y-114390000D01*
X111615009Y-114830086D01*
X111864297Y-115203173D01*
X112237384Y-115452461D01*
X112677470Y-115540000D01*
X112722530Y-115540000D01*
X113162616Y-115452461D01*
X113535703Y-115203173D01*
X113784991Y-114830086D01*
X113872530Y-114390000D01*
X113784991Y-113949914D01*
X113535703Y-113576827D01*
X113162616Y-113327539D01*
X112722530Y-113240000D01*
X112677470Y-113240000D01*
X112237384Y-113327539D01*
X111864297Y-113576827D01*
X111615009Y-113949914D01*
X111527470Y-114390000D01*
X88472530Y-114390000D01*
X88384991Y-113949914D01*
X88135703Y-113576827D01*
X87824404Y-113368824D01*
X101399896Y-113368824D01*
X101491048Y-113589429D01*
X101659683Y-113758359D01*
X101880129Y-113849896D01*
X102118824Y-113850104D01*
X102339429Y-113758952D01*
X102508359Y-113590317D01*
X102599896Y-113369871D01*
X102600104Y-113131176D01*
X102508952Y-112910571D01*
X102340317Y-112741641D01*
X102119871Y-112650104D01*
X101881176Y-112649896D01*
X101660571Y-112741048D01*
X101491641Y-112909683D01*
X101400104Y-113130129D01*
X101399896Y-113368824D01*
X87824404Y-113368824D01*
X87762616Y-113327539D01*
X87322530Y-113240000D01*
X87277470Y-113240000D01*
X86837384Y-113327539D01*
X86464297Y-113576827D01*
X86215009Y-113949914D01*
X86127470Y-114390000D01*
X85375000Y-114390000D01*
X85375000Y-111850000D01*
X86127470Y-111850000D01*
X86215009Y-112290086D01*
X86464297Y-112663173D01*
X86837384Y-112912461D01*
X87277470Y-113000000D01*
X87322530Y-113000000D01*
X87762616Y-112912461D01*
X88135703Y-112663173D01*
X88384991Y-112290086D01*
X88472530Y-111850000D01*
X111527470Y-111850000D01*
X111615009Y-112290086D01*
X111864297Y-112663173D01*
X112237384Y-112912461D01*
X112677470Y-113000000D01*
X112722530Y-113000000D01*
X113162616Y-112912461D01*
X113535703Y-112663173D01*
X113784991Y-112290086D01*
X113872530Y-111850000D01*
X113784991Y-111409914D01*
X113535703Y-111036827D01*
X113162616Y-110787539D01*
X112722530Y-110700000D01*
X112677470Y-110700000D01*
X112237384Y-110787539D01*
X111864297Y-111036827D01*
X111615009Y-111409914D01*
X111527470Y-111850000D01*
X88472530Y-111850000D01*
X88384991Y-111409914D01*
X88135703Y-111036827D01*
X87762616Y-110787539D01*
X87322530Y-110700000D01*
X87277470Y-110700000D01*
X86837384Y-110787539D01*
X86464297Y-111036827D01*
X86215009Y-111409914D01*
X86127470Y-111850000D01*
X85375000Y-111850000D01*
X85375000Y-109310000D01*
X86127470Y-109310000D01*
X86215009Y-109750086D01*
X86464297Y-110123173D01*
X86837384Y-110372461D01*
X87277470Y-110460000D01*
X87322530Y-110460000D01*
X87762616Y-110372461D01*
X88135703Y-110123173D01*
X88384991Y-109750086D01*
X88472530Y-109310000D01*
X111527470Y-109310000D01*
X111615009Y-109750086D01*
X111864297Y-110123173D01*
X112237384Y-110372461D01*
X112677470Y-110460000D01*
X112722530Y-110460000D01*
X113162616Y-110372461D01*
X113535703Y-110123173D01*
X113784991Y-109750086D01*
X113872530Y-109310000D01*
X113784991Y-108869914D01*
X113535703Y-108496827D01*
X113162616Y-108247539D01*
X112722530Y-108160000D01*
X112677470Y-108160000D01*
X112237384Y-108247539D01*
X111864297Y-108496827D01*
X111615009Y-108869914D01*
X111527470Y-109310000D01*
X88472530Y-109310000D01*
X88384991Y-108869914D01*
X88135703Y-108496827D01*
X87762616Y-108247539D01*
X87322530Y-108160000D01*
X87277470Y-108160000D01*
X86837384Y-108247539D01*
X86464297Y-108496827D01*
X86215009Y-108869914D01*
X86127470Y-109310000D01*
X85375000Y-109310000D01*
X85375000Y-106770000D01*
X86127470Y-106770000D01*
X86215009Y-107210086D01*
X86464297Y-107583173D01*
X86837384Y-107832461D01*
X87277470Y-107920000D01*
X87322530Y-107920000D01*
X87762616Y-107832461D01*
X88135703Y-107583173D01*
X88384991Y-107210086D01*
X88472530Y-106770000D01*
X111527470Y-106770000D01*
X111615009Y-107210086D01*
X111864297Y-107583173D01*
X112237384Y-107832461D01*
X112677470Y-107920000D01*
X112722530Y-107920000D01*
X113162616Y-107832461D01*
X113535703Y-107583173D01*
X113784991Y-107210086D01*
X113872530Y-106770000D01*
X113784991Y-106329914D01*
X113535703Y-105956827D01*
X113162616Y-105707539D01*
X112722530Y-105620000D01*
X112677470Y-105620000D01*
X112237384Y-105707539D01*
X111864297Y-105956827D01*
X111615009Y-106329914D01*
X111527470Y-106770000D01*
X88472530Y-106770000D01*
X88384991Y-106329914D01*
X88135703Y-105956827D01*
X87762616Y-105707539D01*
X87322530Y-105620000D01*
X87277470Y-105620000D01*
X86837384Y-105707539D01*
X86464297Y-105956827D01*
X86215009Y-106329914D01*
X86127470Y-106770000D01*
X85375000Y-106770000D01*
X85375000Y-104230000D01*
X86127470Y-104230000D01*
X86215009Y-104670086D01*
X86464297Y-105043173D01*
X86837384Y-105292461D01*
X87277470Y-105380000D01*
X87322530Y-105380000D01*
X87762616Y-105292461D01*
X88135703Y-105043173D01*
X88384991Y-104670086D01*
X88472530Y-104230000D01*
X111527470Y-104230000D01*
X111615009Y-104670086D01*
X111864297Y-105043173D01*
X112237384Y-105292461D01*
X112677470Y-105380000D01*
X112722530Y-105380000D01*
X113162616Y-105292461D01*
X113535703Y-105043173D01*
X113784991Y-104670086D01*
X113872530Y-104230000D01*
X113784991Y-103789914D01*
X113535703Y-103416827D01*
X113162616Y-103167539D01*
X112722530Y-103080000D01*
X112677470Y-103080000D01*
X112237384Y-103167539D01*
X111864297Y-103416827D01*
X111615009Y-103789914D01*
X111527470Y-104230000D01*
X88472530Y-104230000D01*
X88384991Y-103789914D01*
X88135703Y-103416827D01*
X87762616Y-103167539D01*
X87322530Y-103080000D01*
X87277470Y-103080000D01*
X86837384Y-103167539D01*
X86464297Y-103416827D01*
X86215009Y-103789914D01*
X86127470Y-104230000D01*
X85375000Y-104230000D01*
X85375000Y-101690000D01*
X86127470Y-101690000D01*
X86215009Y-102130086D01*
X86464297Y-102503173D01*
X86837384Y-102752461D01*
X87277470Y-102840000D01*
X87322530Y-102840000D01*
X87762616Y-102752461D01*
X88135703Y-102503173D01*
X88384991Y-102130086D01*
X88472530Y-101690000D01*
X88384991Y-101249914D01*
X88135703Y-100876827D01*
X87762616Y-100627539D01*
X87322530Y-100540000D01*
X87277470Y-100540000D01*
X86837384Y-100627539D01*
X86464297Y-100876827D01*
X86215009Y-101249914D01*
X86127470Y-101690000D01*
X85375000Y-101690000D01*
X85375000Y-100483677D01*
X96264748Y-100483677D01*
X96355900Y-100704282D01*
X96524535Y-100873212D01*
X96744981Y-100964749D01*
X96757653Y-100964760D01*
X97466848Y-101673956D01*
X97466838Y-101685766D01*
X97557990Y-101906371D01*
X97726625Y-102075301D01*
X97947071Y-102166838D01*
X98185766Y-102167046D01*
X98406371Y-102075894D01*
X98575301Y-101907259D01*
X98665514Y-101690000D01*
X111527470Y-101690000D01*
X111615009Y-102130086D01*
X111864297Y-102503173D01*
X112237384Y-102752461D01*
X112677470Y-102840000D01*
X112722530Y-102840000D01*
X113162616Y-102752461D01*
X113535703Y-102503173D01*
X113784991Y-102130086D01*
X113872530Y-101690000D01*
X113784991Y-101249914D01*
X113535703Y-100876827D01*
X113162616Y-100627539D01*
X112722530Y-100540000D01*
X112677470Y-100540000D01*
X112237384Y-100627539D01*
X111864297Y-100876827D01*
X111615009Y-101249914D01*
X111527470Y-101690000D01*
X98665514Y-101690000D01*
X98666838Y-101686813D01*
X98667046Y-101448118D01*
X98575894Y-101227513D01*
X98407259Y-101058583D01*
X98186813Y-100967046D01*
X98174141Y-100967035D01*
X97464946Y-100257841D01*
X97464956Y-100246029D01*
X97373804Y-100025424D01*
X97205169Y-99856494D01*
X96984723Y-99764957D01*
X96746028Y-99764749D01*
X96525423Y-99855901D01*
X96356493Y-100024536D01*
X96264956Y-100244982D01*
X96264748Y-100483677D01*
X85375000Y-100483677D01*
X85375000Y-99150000D01*
X86127470Y-99150000D01*
X86215009Y-99590086D01*
X86464297Y-99963173D01*
X86837384Y-100212461D01*
X87277470Y-100300000D01*
X87322530Y-100300000D01*
X87762616Y-100212461D01*
X88135703Y-99963173D01*
X88384991Y-99590086D01*
X88472530Y-99150000D01*
X111527470Y-99150000D01*
X111615009Y-99590086D01*
X111864297Y-99963173D01*
X112237384Y-100212461D01*
X112677470Y-100300000D01*
X112722530Y-100300000D01*
X113162616Y-100212461D01*
X113535703Y-99963173D01*
X113784991Y-99590086D01*
X113872530Y-99150000D01*
X113784991Y-98709914D01*
X113535703Y-98336827D01*
X113162616Y-98087539D01*
X112722530Y-98000000D01*
X112677470Y-98000000D01*
X112237384Y-98087539D01*
X111864297Y-98336827D01*
X111615009Y-98709914D01*
X111527470Y-99150000D01*
X88472530Y-99150000D01*
X88384991Y-98709914D01*
X88135703Y-98336827D01*
X87762616Y-98087539D01*
X87322530Y-98000000D01*
X87277470Y-98000000D01*
X86837384Y-98087539D01*
X86464297Y-98336827D01*
X86215009Y-98709914D01*
X86127470Y-99150000D01*
X85375000Y-99150000D01*
X85375000Y-96610000D01*
X86127470Y-96610000D01*
X86215009Y-97050086D01*
X86464297Y-97423173D01*
X86837384Y-97672461D01*
X87277470Y-97760000D01*
X87322530Y-97760000D01*
X87762616Y-97672461D01*
X88135703Y-97423173D01*
X88384991Y-97050086D01*
X88472530Y-96610000D01*
X111527470Y-96610000D01*
X111615009Y-97050086D01*
X111864297Y-97423173D01*
X112237384Y-97672461D01*
X112677470Y-97760000D01*
X112722530Y-97760000D01*
X113162616Y-97672461D01*
X113535703Y-97423173D01*
X113784991Y-97050086D01*
X113872530Y-96610000D01*
X113784991Y-96169914D01*
X113535703Y-95796827D01*
X113162616Y-95547539D01*
X112722530Y-95460000D01*
X112677470Y-95460000D01*
X112237384Y-95547539D01*
X111864297Y-95796827D01*
X111615009Y-96169914D01*
X111527470Y-96610000D01*
X88472530Y-96610000D01*
X88384991Y-96169914D01*
X88135703Y-95796827D01*
X87762616Y-95547539D01*
X87322530Y-95460000D01*
X87277470Y-95460000D01*
X86837384Y-95547539D01*
X86464297Y-95796827D01*
X86215009Y-96169914D01*
X86127470Y-96610000D01*
X85375000Y-96610000D01*
X85375000Y-94070000D01*
X86127470Y-94070000D01*
X86215009Y-94510086D01*
X86464297Y-94883173D01*
X86837384Y-95132461D01*
X87277470Y-95220000D01*
X87322530Y-95220000D01*
X87762616Y-95132461D01*
X88135703Y-94883173D01*
X88384991Y-94510086D01*
X88472530Y-94070000D01*
X111527470Y-94070000D01*
X111615009Y-94510086D01*
X111864297Y-94883173D01*
X112237384Y-95132461D01*
X112677470Y-95220000D01*
X112722530Y-95220000D01*
X113162616Y-95132461D01*
X113535703Y-94883173D01*
X113784991Y-94510086D01*
X113872530Y-94070000D01*
X113784991Y-93629914D01*
X113535703Y-93256827D01*
X113162616Y-93007539D01*
X112722530Y-92920000D01*
X112677470Y-92920000D01*
X112237384Y-93007539D01*
X111864297Y-93256827D01*
X111615009Y-93629914D01*
X111527470Y-94070000D01*
X88472530Y-94070000D01*
X88384991Y-93629914D01*
X88135703Y-93256827D01*
X87762616Y-93007539D01*
X87322530Y-92920000D01*
X87277470Y-92920000D01*
X86837384Y-93007539D01*
X86464297Y-93256827D01*
X86215009Y-93629914D01*
X86127470Y-94070000D01*
X85375000Y-94070000D01*
X85375000Y-91530000D01*
X86127470Y-91530000D01*
X86215009Y-91970086D01*
X86464297Y-92343173D01*
X86837384Y-92592461D01*
X87277470Y-92680000D01*
X87322530Y-92680000D01*
X87762616Y-92592461D01*
X88135703Y-92343173D01*
X88384991Y-91970086D01*
X88472530Y-91530000D01*
X111527470Y-91530000D01*
X111615009Y-91970086D01*
X111864297Y-92343173D01*
X112237384Y-92592461D01*
X112677470Y-92680000D01*
X112722530Y-92680000D01*
X113162616Y-92592461D01*
X113535703Y-92343173D01*
X113784991Y-91970086D01*
X113872530Y-91530000D01*
X113784991Y-91089914D01*
X113535703Y-90716827D01*
X113162616Y-90467539D01*
X112722530Y-90380000D01*
X112677470Y-90380000D01*
X112237384Y-90467539D01*
X111864297Y-90716827D01*
X111615009Y-91089914D01*
X111527470Y-91530000D01*
X88472530Y-91530000D01*
X88384991Y-91089914D01*
X88135703Y-90716827D01*
X87762616Y-90467539D01*
X87322530Y-90380000D01*
X87277470Y-90380000D01*
X86837384Y-90467539D01*
X86464297Y-90716827D01*
X86215009Y-91089914D01*
X86127470Y-91530000D01*
X85375000Y-91530000D01*
X85375000Y-88990000D01*
X86127470Y-88990000D01*
X86215009Y-89430086D01*
X86464297Y-89803173D01*
X86837384Y-90052461D01*
X87277470Y-90140000D01*
X87322530Y-90140000D01*
X87762616Y-90052461D01*
X88135703Y-89803173D01*
X88384991Y-89430086D01*
X88472530Y-88990000D01*
X88384991Y-88549914D01*
X88135703Y-88176827D01*
X87762616Y-87927539D01*
X87322530Y-87840000D01*
X87277470Y-87840000D01*
X86837384Y-87927539D01*
X86464297Y-88176827D01*
X86215009Y-88549914D01*
X86127470Y-88990000D01*
X85375000Y-88990000D01*
X85375000Y-85600000D01*
X86144123Y-85600000D01*
X86144123Y-87300000D01*
X86165042Y-87411173D01*
X86230745Y-87513279D01*
X86330997Y-87581778D01*
X86450000Y-87605877D01*
X88150000Y-87605877D01*
X88261173Y-87584958D01*
X88363279Y-87519255D01*
X88431778Y-87419003D01*
X88455877Y-87300000D01*
X88455877Y-85600000D01*
X88434958Y-85488827D01*
X88369255Y-85386721D01*
X88269003Y-85318222D01*
X88150000Y-85294123D01*
X86450000Y-85294123D01*
X86338827Y-85315042D01*
X86236721Y-85380745D01*
X86168222Y-85480997D01*
X86144123Y-85600000D01*
X85375000Y-85600000D01*
X85375000Y-72875000D01*
X114625000Y-72875000D01*
X114625000Y-127125000D01*
X114625000Y-127125000D01*
G37*
X114625000Y-127125000D02*
X85375000Y-127125000D01*
X85375000Y-124550000D01*
X111527470Y-124550000D01*
X111615009Y-124990086D01*
X111864297Y-125363173D01*
X112237384Y-125612461D01*
X112677470Y-125700000D01*
X112722530Y-125700000D01*
X113162616Y-125612461D01*
X113535703Y-125363173D01*
X113784991Y-124990086D01*
X113872530Y-124550000D01*
X113784991Y-124109914D01*
X113535703Y-123736827D01*
X113162616Y-123487539D01*
X112722530Y-123400000D01*
X112677470Y-123400000D01*
X112237384Y-123487539D01*
X111864297Y-123736827D01*
X111615009Y-124109914D01*
X111527470Y-124550000D01*
X85375000Y-124550000D01*
X85375000Y-122010000D01*
X86127470Y-122010000D01*
X86215009Y-122450086D01*
X86464297Y-122823173D01*
X86837384Y-123072461D01*
X87277470Y-123160000D01*
X87322530Y-123160000D01*
X87762616Y-123072461D01*
X88135703Y-122823173D01*
X88384991Y-122450086D01*
X88472530Y-122010000D01*
X111527470Y-122010000D01*
X111615009Y-122450086D01*
X111864297Y-122823173D01*
X112237384Y-123072461D01*
X112677470Y-123160000D01*
X112722530Y-123160000D01*
X113162616Y-123072461D01*
X113535703Y-122823173D01*
X113784991Y-122450086D01*
X113872530Y-122010000D01*
X113784991Y-121569914D01*
X113535703Y-121196827D01*
X113162616Y-120947539D01*
X112722530Y-120860000D01*
X112677470Y-120860000D01*
X112237384Y-120947539D01*
X111864297Y-121196827D01*
X111615009Y-121569914D01*
X111527470Y-122010000D01*
X88472530Y-122010000D01*
X88384991Y-121569914D01*
X88135703Y-121196827D01*
X87762616Y-120947539D01*
X87322530Y-120860000D01*
X87277470Y-120860000D01*
X86837384Y-120947539D01*
X86464297Y-121196827D01*
X86215009Y-121569914D01*
X86127470Y-122010000D01*
X85375000Y-122010000D01*
X85375000Y-119470000D01*
X86127470Y-119470000D01*
X86215009Y-119910086D01*
X86464297Y-120283173D01*
X86837384Y-120532461D01*
X87277470Y-120620000D01*
X87322530Y-120620000D01*
X87762616Y-120532461D01*
X88135703Y-120283173D01*
X88384991Y-119910086D01*
X88472530Y-119470000D01*
X111527470Y-119470000D01*
X111615009Y-119910086D01*
X111864297Y-120283173D01*
X112237384Y-120532461D01*
X112677470Y-120620000D01*
X112722530Y-120620000D01*
X113162616Y-120532461D01*
X113535703Y-120283173D01*
X113784991Y-119910086D01*
X113872530Y-119470000D01*
X113784991Y-119029914D01*
X113535703Y-118656827D01*
X113162616Y-118407539D01*
X112722530Y-118320000D01*
X112677470Y-118320000D01*
X112237384Y-118407539D01*
X111864297Y-118656827D01*
X111615009Y-119029914D01*
X111527470Y-119470000D01*
X88472530Y-119470000D01*
X88384991Y-119029914D01*
X88135703Y-118656827D01*
X87762616Y-118407539D01*
X87322530Y-118320000D01*
X87277470Y-118320000D01*
X86837384Y-118407539D01*
X86464297Y-118656827D01*
X86215009Y-119029914D01*
X86127470Y-119470000D01*
X85375000Y-119470000D01*
X85375000Y-116930000D01*
X86127470Y-116930000D01*
X86215009Y-117370086D01*
X86464297Y-117743173D01*
X86837384Y-117992461D01*
X87277470Y-118080000D01*
X87322530Y-118080000D01*
X87762616Y-117992461D01*
X88135703Y-117743173D01*
X88384991Y-117370086D01*
X88472530Y-116930000D01*
X111527470Y-116930000D01*
X111615009Y-117370086D01*
X111864297Y-117743173D01*
X112237384Y-117992461D01*
X112677470Y-118080000D01*
X112722530Y-118080000D01*
X113162616Y-117992461D01*
X113535703Y-117743173D01*
X113784991Y-117370086D01*
X113872530Y-116930000D01*
X113784991Y-116489914D01*
X113535703Y-116116827D01*
X113162616Y-115867539D01*
X112722530Y-115780000D01*
X112677470Y-115780000D01*
X112237384Y-115867539D01*
X111864297Y-116116827D01*
X111615009Y-116489914D01*
X111527470Y-116930000D01*
X88472530Y-116930000D01*
X88384991Y-116489914D01*
X88135703Y-116116827D01*
X87762616Y-115867539D01*
X87322530Y-115780000D01*
X87277470Y-115780000D01*
X86837384Y-115867539D01*
X86464297Y-116116827D01*
X86215009Y-116489914D01*
X86127470Y-116930000D01*
X85375000Y-116930000D01*
X85375000Y-114390000D01*
X86127470Y-114390000D01*
X86215009Y-114830086D01*
X86464297Y-115203173D01*
X86837384Y-115452461D01*
X87277470Y-115540000D01*
X87322530Y-115540000D01*
X87762616Y-115452461D01*
X88135703Y-115203173D01*
X88384991Y-114830086D01*
X88472530Y-114390000D01*
X111527470Y-114390000D01*
X111615009Y-114830086D01*
X111864297Y-115203173D01*
X112237384Y-115452461D01*
X112677470Y-115540000D01*
X112722530Y-115540000D01*
X113162616Y-115452461D01*
X113535703Y-115203173D01*
X113784991Y-114830086D01*
X113872530Y-114390000D01*
X113784991Y-113949914D01*
X113535703Y-113576827D01*
X113162616Y-113327539D01*
X112722530Y-113240000D01*
X112677470Y-113240000D01*
X112237384Y-113327539D01*
X111864297Y-113576827D01*
X111615009Y-113949914D01*
X111527470Y-114390000D01*
X88472530Y-114390000D01*
X88384991Y-113949914D01*
X88135703Y-113576827D01*
X87824404Y-113368824D01*
X101399896Y-113368824D01*
X101491048Y-113589429D01*
X101659683Y-113758359D01*
X101880129Y-113849896D01*
X102118824Y-113850104D01*
X102339429Y-113758952D01*
X102508359Y-113590317D01*
X102599896Y-113369871D01*
X102600104Y-113131176D01*
X102508952Y-112910571D01*
X102340317Y-112741641D01*
X102119871Y-112650104D01*
X101881176Y-112649896D01*
X101660571Y-112741048D01*
X101491641Y-112909683D01*
X101400104Y-113130129D01*
X101399896Y-113368824D01*
X87824404Y-113368824D01*
X87762616Y-113327539D01*
X87322530Y-113240000D01*
X87277470Y-113240000D01*
X86837384Y-113327539D01*
X86464297Y-113576827D01*
X86215009Y-113949914D01*
X86127470Y-114390000D01*
X85375000Y-114390000D01*
X85375000Y-111850000D01*
X86127470Y-111850000D01*
X86215009Y-112290086D01*
X86464297Y-112663173D01*
X86837384Y-112912461D01*
X87277470Y-113000000D01*
X87322530Y-113000000D01*
X87762616Y-112912461D01*
X88135703Y-112663173D01*
X88384991Y-112290086D01*
X88472530Y-111850000D01*
X111527470Y-111850000D01*
X111615009Y-112290086D01*
X111864297Y-112663173D01*
X112237384Y-112912461D01*
X112677470Y-113000000D01*
X112722530Y-113000000D01*
X113162616Y-112912461D01*
X113535703Y-112663173D01*
X113784991Y-112290086D01*
X113872530Y-111850000D01*
X113784991Y-111409914D01*
X113535703Y-111036827D01*
X113162616Y-110787539D01*
X112722530Y-110700000D01*
X112677470Y-110700000D01*
X112237384Y-110787539D01*
X111864297Y-111036827D01*
X111615009Y-111409914D01*
X111527470Y-111850000D01*
X88472530Y-111850000D01*
X88384991Y-111409914D01*
X88135703Y-111036827D01*
X87762616Y-110787539D01*
X87322530Y-110700000D01*
X87277470Y-110700000D01*
X86837384Y-110787539D01*
X86464297Y-111036827D01*
X86215009Y-111409914D01*
X86127470Y-111850000D01*
X85375000Y-111850000D01*
X85375000Y-109310000D01*
X86127470Y-109310000D01*
X86215009Y-109750086D01*
X86464297Y-110123173D01*
X86837384Y-110372461D01*
X87277470Y-110460000D01*
X87322530Y-110460000D01*
X87762616Y-110372461D01*
X88135703Y-110123173D01*
X88384991Y-109750086D01*
X88472530Y-109310000D01*
X111527470Y-109310000D01*
X111615009Y-109750086D01*
X111864297Y-110123173D01*
X112237384Y-110372461D01*
X112677470Y-110460000D01*
X112722530Y-110460000D01*
X113162616Y-110372461D01*
X113535703Y-110123173D01*
X113784991Y-109750086D01*
X113872530Y-109310000D01*
X113784991Y-108869914D01*
X113535703Y-108496827D01*
X113162616Y-108247539D01*
X112722530Y-108160000D01*
X112677470Y-108160000D01*
X112237384Y-108247539D01*
X111864297Y-108496827D01*
X111615009Y-108869914D01*
X111527470Y-109310000D01*
X88472530Y-109310000D01*
X88384991Y-108869914D01*
X88135703Y-108496827D01*
X87762616Y-108247539D01*
X87322530Y-108160000D01*
X87277470Y-108160000D01*
X86837384Y-108247539D01*
X86464297Y-108496827D01*
X86215009Y-108869914D01*
X86127470Y-109310000D01*
X85375000Y-109310000D01*
X85375000Y-106770000D01*
X86127470Y-106770000D01*
X86215009Y-107210086D01*
X86464297Y-107583173D01*
X86837384Y-107832461D01*
X87277470Y-107920000D01*
X87322530Y-107920000D01*
X87762616Y-107832461D01*
X88135703Y-107583173D01*
X88384991Y-107210086D01*
X88472530Y-106770000D01*
X111527470Y-106770000D01*
X111615009Y-107210086D01*
X111864297Y-107583173D01*
X112237384Y-107832461D01*
X112677470Y-107920000D01*
X112722530Y-107920000D01*
X113162616Y-107832461D01*
X113535703Y-107583173D01*
X113784991Y-107210086D01*
X113872530Y-106770000D01*
X113784991Y-106329914D01*
X113535703Y-105956827D01*
X113162616Y-105707539D01*
X112722530Y-105620000D01*
X112677470Y-105620000D01*
X112237384Y-105707539D01*
X111864297Y-105956827D01*
X111615009Y-106329914D01*
X111527470Y-106770000D01*
X88472530Y-106770000D01*
X88384991Y-106329914D01*
X88135703Y-105956827D01*
X87762616Y-105707539D01*
X87322530Y-105620000D01*
X87277470Y-105620000D01*
X86837384Y-105707539D01*
X86464297Y-105956827D01*
X86215009Y-106329914D01*
X86127470Y-106770000D01*
X85375000Y-106770000D01*
X85375000Y-104230000D01*
X86127470Y-104230000D01*
X86215009Y-104670086D01*
X86464297Y-105043173D01*
X86837384Y-105292461D01*
X87277470Y-105380000D01*
X87322530Y-105380000D01*
X87762616Y-105292461D01*
X88135703Y-105043173D01*
X88384991Y-104670086D01*
X88472530Y-104230000D01*
X111527470Y-104230000D01*
X111615009Y-104670086D01*
X111864297Y-105043173D01*
X112237384Y-105292461D01*
X112677470Y-105380000D01*
X112722530Y-105380000D01*
X113162616Y-105292461D01*
X113535703Y-105043173D01*
X113784991Y-104670086D01*
X113872530Y-104230000D01*
X113784991Y-103789914D01*
X113535703Y-103416827D01*
X113162616Y-103167539D01*
X112722530Y-103080000D01*
X112677470Y-103080000D01*
X112237384Y-103167539D01*
X111864297Y-103416827D01*
X111615009Y-103789914D01*
X111527470Y-104230000D01*
X88472530Y-104230000D01*
X88384991Y-103789914D01*
X88135703Y-103416827D01*
X87762616Y-103167539D01*
X87322530Y-103080000D01*
X87277470Y-103080000D01*
X86837384Y-103167539D01*
X86464297Y-103416827D01*
X86215009Y-103789914D01*
X86127470Y-104230000D01*
X85375000Y-104230000D01*
X85375000Y-101690000D01*
X86127470Y-101690000D01*
X86215009Y-102130086D01*
X86464297Y-102503173D01*
X86837384Y-102752461D01*
X87277470Y-102840000D01*
X87322530Y-102840000D01*
X87762616Y-102752461D01*
X88135703Y-102503173D01*
X88384991Y-102130086D01*
X88472530Y-101690000D01*
X88384991Y-101249914D01*
X88135703Y-100876827D01*
X87762616Y-100627539D01*
X87322530Y-100540000D01*
X87277470Y-100540000D01*
X86837384Y-100627539D01*
X86464297Y-100876827D01*
X86215009Y-101249914D01*
X86127470Y-101690000D01*
X85375000Y-101690000D01*
X85375000Y-100483677D01*
X96264748Y-100483677D01*
X96355900Y-100704282D01*
X96524535Y-100873212D01*
X96744981Y-100964749D01*
X96757653Y-100964760D01*
X97466848Y-101673956D01*
X97466838Y-101685766D01*
X97557990Y-101906371D01*
X97726625Y-102075301D01*
X97947071Y-102166838D01*
X98185766Y-102167046D01*
X98406371Y-102075894D01*
X98575301Y-101907259D01*
X98665514Y-101690000D01*
X111527470Y-101690000D01*
X111615009Y-102130086D01*
X111864297Y-102503173D01*
X112237384Y-102752461D01*
X112677470Y-102840000D01*
X112722530Y-102840000D01*
X113162616Y-102752461D01*
X113535703Y-102503173D01*
X113784991Y-102130086D01*
X113872530Y-101690000D01*
X113784991Y-101249914D01*
X113535703Y-100876827D01*
X113162616Y-100627539D01*
X112722530Y-100540000D01*
X112677470Y-100540000D01*
X112237384Y-100627539D01*
X111864297Y-100876827D01*
X111615009Y-101249914D01*
X111527470Y-101690000D01*
X98665514Y-101690000D01*
X98666838Y-101686813D01*
X98667046Y-101448118D01*
X98575894Y-101227513D01*
X98407259Y-101058583D01*
X98186813Y-100967046D01*
X98174141Y-100967035D01*
X97464946Y-100257841D01*
X97464956Y-100246029D01*
X97373804Y-100025424D01*
X97205169Y-99856494D01*
X96984723Y-99764957D01*
X96746028Y-99764749D01*
X96525423Y-99855901D01*
X96356493Y-100024536D01*
X96264956Y-100244982D01*
X96264748Y-100483677D01*
X85375000Y-100483677D01*
X85375000Y-99150000D01*
X86127470Y-99150000D01*
X86215009Y-99590086D01*
X86464297Y-99963173D01*
X86837384Y-100212461D01*
X87277470Y-100300000D01*
X87322530Y-100300000D01*
X87762616Y-100212461D01*
X88135703Y-99963173D01*
X88384991Y-99590086D01*
X88472530Y-99150000D01*
X111527470Y-99150000D01*
X111615009Y-99590086D01*
X111864297Y-99963173D01*
X112237384Y-100212461D01*
X112677470Y-100300000D01*
X112722530Y-100300000D01*
X113162616Y-100212461D01*
X113535703Y-99963173D01*
X113784991Y-99590086D01*
X113872530Y-99150000D01*
X113784991Y-98709914D01*
X113535703Y-98336827D01*
X113162616Y-98087539D01*
X112722530Y-98000000D01*
X112677470Y-98000000D01*
X112237384Y-98087539D01*
X111864297Y-98336827D01*
X111615009Y-98709914D01*
X111527470Y-99150000D01*
X88472530Y-99150000D01*
X88384991Y-98709914D01*
X88135703Y-98336827D01*
X87762616Y-98087539D01*
X87322530Y-98000000D01*
X87277470Y-98000000D01*
X86837384Y-98087539D01*
X86464297Y-98336827D01*
X86215009Y-98709914D01*
X86127470Y-99150000D01*
X85375000Y-99150000D01*
X85375000Y-96610000D01*
X86127470Y-96610000D01*
X86215009Y-97050086D01*
X86464297Y-97423173D01*
X86837384Y-97672461D01*
X87277470Y-97760000D01*
X87322530Y-97760000D01*
X87762616Y-97672461D01*
X88135703Y-97423173D01*
X88384991Y-97050086D01*
X88472530Y-96610000D01*
X111527470Y-96610000D01*
X111615009Y-97050086D01*
X111864297Y-97423173D01*
X112237384Y-97672461D01*
X112677470Y-97760000D01*
X112722530Y-97760000D01*
X113162616Y-97672461D01*
X113535703Y-97423173D01*
X113784991Y-97050086D01*
X113872530Y-96610000D01*
X113784991Y-96169914D01*
X113535703Y-95796827D01*
X113162616Y-95547539D01*
X112722530Y-95460000D01*
X112677470Y-95460000D01*
X112237384Y-95547539D01*
X111864297Y-95796827D01*
X111615009Y-96169914D01*
X111527470Y-96610000D01*
X88472530Y-96610000D01*
X88384991Y-96169914D01*
X88135703Y-95796827D01*
X87762616Y-95547539D01*
X87322530Y-95460000D01*
X87277470Y-95460000D01*
X86837384Y-95547539D01*
X86464297Y-95796827D01*
X86215009Y-96169914D01*
X86127470Y-96610000D01*
X85375000Y-96610000D01*
X85375000Y-94070000D01*
X86127470Y-94070000D01*
X86215009Y-94510086D01*
X86464297Y-94883173D01*
X86837384Y-95132461D01*
X87277470Y-95220000D01*
X87322530Y-95220000D01*
X87762616Y-95132461D01*
X88135703Y-94883173D01*
X88384991Y-94510086D01*
X88472530Y-94070000D01*
X111527470Y-94070000D01*
X111615009Y-94510086D01*
X111864297Y-94883173D01*
X112237384Y-95132461D01*
X112677470Y-95220000D01*
X112722530Y-95220000D01*
X113162616Y-95132461D01*
X113535703Y-94883173D01*
X113784991Y-94510086D01*
X113872530Y-94070000D01*
X113784991Y-93629914D01*
X113535703Y-93256827D01*
X113162616Y-93007539D01*
X112722530Y-92920000D01*
X112677470Y-92920000D01*
X112237384Y-93007539D01*
X111864297Y-93256827D01*
X111615009Y-93629914D01*
X111527470Y-94070000D01*
X88472530Y-94070000D01*
X88384991Y-93629914D01*
X88135703Y-93256827D01*
X87762616Y-93007539D01*
X87322530Y-92920000D01*
X87277470Y-92920000D01*
X86837384Y-93007539D01*
X86464297Y-93256827D01*
X86215009Y-93629914D01*
X86127470Y-94070000D01*
X85375000Y-94070000D01*
X85375000Y-91530000D01*
X86127470Y-91530000D01*
X86215009Y-91970086D01*
X86464297Y-92343173D01*
X86837384Y-92592461D01*
X87277470Y-92680000D01*
X87322530Y-92680000D01*
X87762616Y-92592461D01*
X88135703Y-92343173D01*
X88384991Y-91970086D01*
X88472530Y-91530000D01*
X111527470Y-91530000D01*
X111615009Y-91970086D01*
X111864297Y-92343173D01*
X112237384Y-92592461D01*
X112677470Y-92680000D01*
X112722530Y-92680000D01*
X113162616Y-92592461D01*
X113535703Y-92343173D01*
X113784991Y-91970086D01*
X113872530Y-91530000D01*
X113784991Y-91089914D01*
X113535703Y-90716827D01*
X113162616Y-90467539D01*
X112722530Y-90380000D01*
X112677470Y-90380000D01*
X112237384Y-90467539D01*
X111864297Y-90716827D01*
X111615009Y-91089914D01*
X111527470Y-91530000D01*
X88472530Y-91530000D01*
X88384991Y-91089914D01*
X88135703Y-90716827D01*
X87762616Y-90467539D01*
X87322530Y-90380000D01*
X87277470Y-90380000D01*
X86837384Y-90467539D01*
X86464297Y-90716827D01*
X86215009Y-91089914D01*
X86127470Y-91530000D01*
X85375000Y-91530000D01*
X85375000Y-88990000D01*
X86127470Y-88990000D01*
X86215009Y-89430086D01*
X86464297Y-89803173D01*
X86837384Y-90052461D01*
X87277470Y-90140000D01*
X87322530Y-90140000D01*
X87762616Y-90052461D01*
X88135703Y-89803173D01*
X88384991Y-89430086D01*
X88472530Y-88990000D01*
X88384991Y-88549914D01*
X88135703Y-88176827D01*
X87762616Y-87927539D01*
X87322530Y-87840000D01*
X87277470Y-87840000D01*
X86837384Y-87927539D01*
X86464297Y-88176827D01*
X86215009Y-88549914D01*
X86127470Y-88990000D01*
X85375000Y-88990000D01*
X85375000Y-85600000D01*
X86144123Y-85600000D01*
X86144123Y-87300000D01*
X86165042Y-87411173D01*
X86230745Y-87513279D01*
X86330997Y-87581778D01*
X86450000Y-87605877D01*
X88150000Y-87605877D01*
X88261173Y-87584958D01*
X88363279Y-87519255D01*
X88431778Y-87419003D01*
X88455877Y-87300000D01*
X88455877Y-85600000D01*
X88434958Y-85488827D01*
X88369255Y-85386721D01*
X88269003Y-85318222D01*
X88150000Y-85294123D01*
X86450000Y-85294123D01*
X86338827Y-85315042D01*
X86236721Y-85380745D01*
X86168222Y-85480997D01*
X86144123Y-85600000D01*
X85375000Y-85600000D01*
X85375000Y-72875000D01*
X114625000Y-72875000D01*
X114625000Y-127125000D01*
M02*
