G04 #@! TF.FileFunction,Copper,L2,Bot,Signal*
%FSLAX46Y46*%
G04 Gerber Fmt 4.6, Leading zero omitted, Abs format (unit mm)*
G04 Created by KiCad (PCBNEW 4.0.7) date 07/20/18 18:28:50*
%MOMM*%
%LPD*%
G01*
G04 APERTURE LIST*
%ADD10C,0.100000*%
%ADD11R,1.700000X1.700000*%
%ADD12O,1.700000X1.700000*%
%ADD13C,0.600000*%
%ADD14C,0.500000*%
%ADD15C,0.400000*%
%ADD16C,0.250000*%
%ADD17C,0.200000*%
G04 APERTURE END LIST*
D10*
D11*
X87300000Y-86450000D03*
D12*
X87300000Y-88990000D03*
X87300000Y-91530000D03*
X87300000Y-94070000D03*
X87300000Y-96610000D03*
X87300000Y-99150000D03*
X87300000Y-101690000D03*
X87300000Y-104230000D03*
X87300000Y-106770000D03*
X87300000Y-109310000D03*
X87300000Y-111850000D03*
X87300000Y-114390000D03*
X87300000Y-116930000D03*
X87300000Y-119470000D03*
X87300000Y-122010000D03*
X87300000Y-124550000D03*
D11*
X112700000Y-86450000D03*
D12*
X112700000Y-88990000D03*
X112700000Y-91530000D03*
X112700000Y-94070000D03*
X112700000Y-96610000D03*
X112700000Y-99150000D03*
X112700000Y-101690000D03*
X112700000Y-104230000D03*
X112700000Y-106770000D03*
X112700000Y-109310000D03*
X112700000Y-111850000D03*
X112700000Y-114390000D03*
X112700000Y-116930000D03*
X112700000Y-119470000D03*
X112700000Y-122010000D03*
X112700000Y-124550000D03*
D13*
X104208824Y-96176771D03*
X102273813Y-98111780D03*
X100800000Y-101900000D03*
X105500000Y-107125000D03*
X106000000Y-109250000D03*
X101750000Y-125000000D03*
X96400000Y-99850000D03*
X92000000Y-98750000D03*
X93000000Y-101000000D03*
X91850000Y-104350000D03*
X91850000Y-105550000D03*
X91850000Y-110350000D03*
X91850000Y-111550000D03*
X93000000Y-115000000D03*
X90500000Y-122000000D03*
X92500000Y-120000000D03*
X90500000Y-120000000D03*
X90500000Y-118000000D03*
X92500000Y-118000000D03*
X94500000Y-118000000D03*
X95500000Y-117100000D03*
X96583930Y-102678563D03*
X97639246Y-104924380D03*
X88875874Y-77888656D03*
X93319400Y-77106595D03*
X91024047Y-76375380D03*
X95000000Y-82750000D03*
X89500000Y-83500000D03*
X90750000Y-81250000D03*
X91750000Y-81000000D03*
X92750000Y-80500000D03*
X110050586Y-83734810D03*
X105003302Y-75806078D03*
X107269989Y-76519193D03*
X108161382Y-77919954D03*
X111726956Y-82504263D03*
X108798092Y-79931956D03*
X107983105Y-81816617D03*
X107000000Y-115000000D03*
X110500000Y-97000000D03*
X107000000Y-101000000D03*
X114000000Y-83500000D03*
X114000000Y-81500000D03*
X114000000Y-79500000D03*
X114000000Y-77500000D03*
X86000000Y-83500000D03*
X86000000Y-81500000D03*
X86000000Y-79500000D03*
X86000000Y-77500000D03*
X86000000Y-75500000D03*
X114000000Y-75500000D03*
X114000000Y-73500000D03*
X112000000Y-73500000D03*
X110000000Y-73500000D03*
X108000000Y-73500000D03*
X106000000Y-73500000D03*
X104000000Y-73500000D03*
X102000000Y-73500000D03*
X100000000Y-73500000D03*
X98000000Y-73500000D03*
X96000000Y-73500000D03*
X94000000Y-73500000D03*
X92000000Y-73500000D03*
X90000000Y-73500000D03*
X88000000Y-73500000D03*
X86000000Y-73500000D03*
X92500000Y-124000000D03*
X90500000Y-126000000D03*
X92500000Y-126000000D03*
X111000000Y-106000000D03*
X111000000Y-108000000D03*
X111000000Y-110000000D03*
X111000000Y-112000000D03*
X111000000Y-114000000D03*
X111000000Y-116000000D03*
X111000000Y-118000000D03*
X111000000Y-120000000D03*
X111000000Y-122000000D03*
X111000000Y-124000000D03*
X111000000Y-126000000D03*
X98500000Y-118000000D03*
X96500000Y-120000000D03*
X98500000Y-120000000D03*
X94500000Y-122000000D03*
X96500000Y-122000000D03*
X98500000Y-122000000D03*
X98500000Y-124000000D03*
X94500000Y-124000000D03*
X94500000Y-126000000D03*
X96500000Y-124000000D03*
X96500000Y-126000000D03*
X98500000Y-126000000D03*
X105000000Y-126000000D03*
X107000000Y-126000000D03*
X109000000Y-126000000D03*
X109000000Y-124000000D03*
X107000000Y-124000000D03*
X105000000Y-124000000D03*
X105000000Y-122000000D03*
X107000000Y-122000000D03*
X109000000Y-122000000D03*
X109000000Y-120000000D03*
X107000000Y-120000000D03*
X105000000Y-120000000D03*
X105000000Y-118000000D03*
X107000000Y-118000000D03*
X109000000Y-118000000D03*
X110000000Y-94000000D03*
X108000000Y-94000000D03*
X106000000Y-94000000D03*
X104000000Y-94000000D03*
X102000000Y-94000000D03*
X100000000Y-94000000D03*
X98000000Y-94000000D03*
X96000000Y-94000000D03*
X94000000Y-94000000D03*
X92000000Y-94000000D03*
X90000000Y-94000000D03*
X98900000Y-117100000D03*
X104600000Y-117100000D03*
X106100000Y-98800000D03*
X98600000Y-98800000D03*
X101400000Y-98800000D03*
X100800000Y-100900000D03*
X109150000Y-106500000D03*
X97600000Y-116100000D03*
X108150000Y-104350000D03*
X105900000Y-104400000D03*
X108150000Y-110350000D03*
X108150000Y-111450000D03*
X103750000Y-115250000D03*
X99250000Y-113250000D03*
X104250000Y-113000000D03*
X101750000Y-110250000D03*
X98250000Y-109000000D03*
X96750000Y-110799999D03*
X100000000Y-100750000D03*
X99000000Y-100750000D03*
D14*
X102000000Y-105500000D03*
X101100000Y-106400000D03*
X102900000Y-104600000D03*
X102900000Y-106400000D03*
X101100000Y-104600000D03*
D13*
X98329918Y-95209853D03*
X98337004Y-97407338D03*
X89833525Y-112702652D03*
X97607742Y-96963986D03*
X96313836Y-98140179D03*
D15*
X103908825Y-96476770D02*
X104208824Y-96176771D01*
X102573814Y-97811781D02*
X103908825Y-96476770D01*
X102273813Y-98111780D02*
X102573814Y-97811781D01*
D16*
X105000000Y-126000000D02*
X98500000Y-126000000D01*
X110000000Y-94000000D02*
X110000000Y-96500000D01*
X110000000Y-96500000D02*
X110500000Y-97000000D01*
X92000000Y-94000000D02*
X92000000Y-94424264D01*
X92000000Y-94424264D02*
X92000000Y-98750000D01*
X97600000Y-116100000D02*
X96500000Y-116100000D01*
X96500000Y-116100000D02*
X95500000Y-117100000D01*
X98337004Y-97407338D02*
X98337004Y-95216939D01*
X98337004Y-95216939D02*
X98329918Y-95209853D01*
X88980873Y-111850000D02*
X89533526Y-112402653D01*
X87300000Y-111850000D02*
X88980873Y-111850000D01*
X89533526Y-112402653D02*
X89833525Y-112702652D01*
X97490029Y-96963986D02*
X97607742Y-96963986D01*
X96313836Y-98140179D02*
X97490029Y-96963986D01*
D17*
G36*
X114625000Y-127125000D02*
X85375000Y-127125000D01*
X85375000Y-124550000D01*
X86127470Y-124550000D01*
X86215009Y-124990086D01*
X86464297Y-125363173D01*
X86837384Y-125612461D01*
X87277470Y-125700000D01*
X87322530Y-125700000D01*
X87762616Y-125612461D01*
X88135703Y-125363173D01*
X88384991Y-124990086D01*
X88472530Y-124550000D01*
X88384991Y-124109914D01*
X88135703Y-123736827D01*
X87762616Y-123487539D01*
X87322530Y-123400000D01*
X87277470Y-123400000D01*
X86837384Y-123487539D01*
X86464297Y-123736827D01*
X86215009Y-124109914D01*
X86127470Y-124550000D01*
X85375000Y-124550000D01*
X85375000Y-122010000D01*
X86127470Y-122010000D01*
X86215009Y-122450086D01*
X86464297Y-122823173D01*
X86837384Y-123072461D01*
X87277470Y-123160000D01*
X87322530Y-123160000D01*
X87762616Y-123072461D01*
X88135703Y-122823173D01*
X88384991Y-122450086D01*
X88472530Y-122010000D01*
X111527470Y-122010000D01*
X111615009Y-122450086D01*
X111864297Y-122823173D01*
X112237384Y-123072461D01*
X112677470Y-123160000D01*
X112722530Y-123160000D01*
X113162616Y-123072461D01*
X113535703Y-122823173D01*
X113784991Y-122450086D01*
X113872530Y-122010000D01*
X113784991Y-121569914D01*
X113535703Y-121196827D01*
X113162616Y-120947539D01*
X112722530Y-120860000D01*
X112677470Y-120860000D01*
X112237384Y-120947539D01*
X111864297Y-121196827D01*
X111615009Y-121569914D01*
X111527470Y-122010000D01*
X88472530Y-122010000D01*
X88384991Y-121569914D01*
X88135703Y-121196827D01*
X87762616Y-120947539D01*
X87322530Y-120860000D01*
X87277470Y-120860000D01*
X86837384Y-120947539D01*
X86464297Y-121196827D01*
X86215009Y-121569914D01*
X86127470Y-122010000D01*
X85375000Y-122010000D01*
X85375000Y-119470000D01*
X86127470Y-119470000D01*
X86215009Y-119910086D01*
X86464297Y-120283173D01*
X86837384Y-120532461D01*
X87277470Y-120620000D01*
X87322530Y-120620000D01*
X87762616Y-120532461D01*
X88135703Y-120283173D01*
X88384991Y-119910086D01*
X88472530Y-119470000D01*
X111527470Y-119470000D01*
X111615009Y-119910086D01*
X111864297Y-120283173D01*
X112237384Y-120532461D01*
X112677470Y-120620000D01*
X112722530Y-120620000D01*
X113162616Y-120532461D01*
X113535703Y-120283173D01*
X113784991Y-119910086D01*
X113872530Y-119470000D01*
X113784991Y-119029914D01*
X113535703Y-118656827D01*
X113162616Y-118407539D01*
X112722530Y-118320000D01*
X112677470Y-118320000D01*
X112237384Y-118407539D01*
X111864297Y-118656827D01*
X111615009Y-119029914D01*
X111527470Y-119470000D01*
X88472530Y-119470000D01*
X88384991Y-119029914D01*
X88135703Y-118656827D01*
X87762616Y-118407539D01*
X87322530Y-118320000D01*
X87277470Y-118320000D01*
X86837384Y-118407539D01*
X86464297Y-118656827D01*
X86215009Y-119029914D01*
X86127470Y-119470000D01*
X85375000Y-119470000D01*
X85375000Y-116930000D01*
X86127470Y-116930000D01*
X86215009Y-117370086D01*
X86464297Y-117743173D01*
X86837384Y-117992461D01*
X87277470Y-118080000D01*
X87322530Y-118080000D01*
X87762616Y-117992461D01*
X88135703Y-117743173D01*
X88384991Y-117370086D01*
X88472530Y-116930000D01*
X111527470Y-116930000D01*
X111615009Y-117370086D01*
X111864297Y-117743173D01*
X112237384Y-117992461D01*
X112677470Y-118080000D01*
X112722530Y-118080000D01*
X113162616Y-117992461D01*
X113535703Y-117743173D01*
X113784991Y-117370086D01*
X113872530Y-116930000D01*
X113784991Y-116489914D01*
X113535703Y-116116827D01*
X113162616Y-115867539D01*
X112722530Y-115780000D01*
X112677470Y-115780000D01*
X112237384Y-115867539D01*
X111864297Y-116116827D01*
X111615009Y-116489914D01*
X111527470Y-116930000D01*
X88472530Y-116930000D01*
X88384991Y-116489914D01*
X88135703Y-116116827D01*
X87762616Y-115867539D01*
X87322530Y-115780000D01*
X87277470Y-115780000D01*
X86837384Y-115867539D01*
X86464297Y-116116827D01*
X86215009Y-116489914D01*
X86127470Y-116930000D01*
X85375000Y-116930000D01*
X85375000Y-114390000D01*
X86127470Y-114390000D01*
X86215009Y-114830086D01*
X86464297Y-115203173D01*
X86837384Y-115452461D01*
X87277470Y-115540000D01*
X87322530Y-115540000D01*
X87762616Y-115452461D01*
X88135703Y-115203173D01*
X88384991Y-114830086D01*
X88472530Y-114390000D01*
X111527470Y-114390000D01*
X111615009Y-114830086D01*
X111864297Y-115203173D01*
X112237384Y-115452461D01*
X112677470Y-115540000D01*
X112722530Y-115540000D01*
X113162616Y-115452461D01*
X113535703Y-115203173D01*
X113784991Y-114830086D01*
X113872530Y-114390000D01*
X113784991Y-113949914D01*
X113535703Y-113576827D01*
X113162616Y-113327539D01*
X112722530Y-113240000D01*
X112677470Y-113240000D01*
X112237384Y-113327539D01*
X111864297Y-113576827D01*
X111615009Y-113949914D01*
X111527470Y-114390000D01*
X88472530Y-114390000D01*
X88384991Y-113949914D01*
X88135703Y-113576827D01*
X87762616Y-113327539D01*
X87322530Y-113240000D01*
X87277470Y-113240000D01*
X86837384Y-113327539D01*
X86464297Y-113576827D01*
X86215009Y-113949914D01*
X86127470Y-114390000D01*
X85375000Y-114390000D01*
X85375000Y-111850000D01*
X86127470Y-111850000D01*
X86215009Y-112290086D01*
X86464297Y-112663173D01*
X86837384Y-112912461D01*
X87277470Y-113000000D01*
X87322530Y-113000000D01*
X87762616Y-112912461D01*
X88135703Y-112663173D01*
X88384991Y-112290086D01*
X88387992Y-112275000D01*
X88804833Y-112275000D01*
X89233005Y-112703173D01*
X89233008Y-112703175D01*
X89233524Y-112703691D01*
X89233421Y-112821476D01*
X89324573Y-113042081D01*
X89493208Y-113211011D01*
X89713654Y-113302548D01*
X89952349Y-113302756D01*
X90172954Y-113211604D01*
X90341884Y-113042969D01*
X90433421Y-112822523D01*
X90433629Y-112583828D01*
X90342477Y-112363223D01*
X90173842Y-112194293D01*
X89953396Y-112102756D01*
X89834565Y-112102652D01*
X89834048Y-112102135D01*
X89834046Y-112102132D01*
X89581914Y-111850000D01*
X111527470Y-111850000D01*
X111615009Y-112290086D01*
X111864297Y-112663173D01*
X112237384Y-112912461D01*
X112677470Y-113000000D01*
X112722530Y-113000000D01*
X113162616Y-112912461D01*
X113535703Y-112663173D01*
X113784991Y-112290086D01*
X113872530Y-111850000D01*
X113784991Y-111409914D01*
X113535703Y-111036827D01*
X113162616Y-110787539D01*
X112722530Y-110700000D01*
X112677470Y-110700000D01*
X112237384Y-110787539D01*
X111864297Y-111036827D01*
X111615009Y-111409914D01*
X111527470Y-111850000D01*
X89581914Y-111850000D01*
X89281393Y-111549480D01*
X89143514Y-111457351D01*
X89116530Y-111451984D01*
X88980873Y-111425000D01*
X88387992Y-111425000D01*
X88384991Y-111409914D01*
X88135703Y-111036827D01*
X87762616Y-110787539D01*
X87322530Y-110700000D01*
X87277470Y-110700000D01*
X86837384Y-110787539D01*
X86464297Y-111036827D01*
X86215009Y-111409914D01*
X86127470Y-111850000D01*
X85375000Y-111850000D01*
X85375000Y-109310000D01*
X86127470Y-109310000D01*
X86215009Y-109750086D01*
X86464297Y-110123173D01*
X86837384Y-110372461D01*
X87277470Y-110460000D01*
X87322530Y-110460000D01*
X87762616Y-110372461D01*
X88135703Y-110123173D01*
X88384991Y-109750086D01*
X88472530Y-109310000D01*
X111527470Y-109310000D01*
X111615009Y-109750086D01*
X111864297Y-110123173D01*
X112237384Y-110372461D01*
X112677470Y-110460000D01*
X112722530Y-110460000D01*
X113162616Y-110372461D01*
X113535703Y-110123173D01*
X113784991Y-109750086D01*
X113872530Y-109310000D01*
X113784991Y-108869914D01*
X113535703Y-108496827D01*
X113162616Y-108247539D01*
X112722530Y-108160000D01*
X112677470Y-108160000D01*
X112237384Y-108247539D01*
X111864297Y-108496827D01*
X111615009Y-108869914D01*
X111527470Y-109310000D01*
X88472530Y-109310000D01*
X88384991Y-108869914D01*
X88135703Y-108496827D01*
X87762616Y-108247539D01*
X87322530Y-108160000D01*
X87277470Y-108160000D01*
X86837384Y-108247539D01*
X86464297Y-108496827D01*
X86215009Y-108869914D01*
X86127470Y-109310000D01*
X85375000Y-109310000D01*
X85375000Y-106770000D01*
X86127470Y-106770000D01*
X86215009Y-107210086D01*
X86464297Y-107583173D01*
X86837384Y-107832461D01*
X87277470Y-107920000D01*
X87322530Y-107920000D01*
X87762616Y-107832461D01*
X88135703Y-107583173D01*
X88384991Y-107210086D01*
X88472530Y-106770000D01*
X111527470Y-106770000D01*
X111615009Y-107210086D01*
X111864297Y-107583173D01*
X112237384Y-107832461D01*
X112677470Y-107920000D01*
X112722530Y-107920000D01*
X113162616Y-107832461D01*
X113535703Y-107583173D01*
X113784991Y-107210086D01*
X113872530Y-106770000D01*
X113784991Y-106329914D01*
X113535703Y-105956827D01*
X113162616Y-105707539D01*
X112722530Y-105620000D01*
X112677470Y-105620000D01*
X112237384Y-105707539D01*
X111864297Y-105956827D01*
X111615009Y-106329914D01*
X111527470Y-106770000D01*
X88472530Y-106770000D01*
X88384991Y-106329914D01*
X88135703Y-105956827D01*
X87762616Y-105707539D01*
X87322530Y-105620000D01*
X87277470Y-105620000D01*
X86837384Y-105707539D01*
X86464297Y-105956827D01*
X86215009Y-106329914D01*
X86127470Y-106770000D01*
X85375000Y-106770000D01*
X85375000Y-104230000D01*
X86127470Y-104230000D01*
X86215009Y-104670086D01*
X86464297Y-105043173D01*
X86837384Y-105292461D01*
X87277470Y-105380000D01*
X87322530Y-105380000D01*
X87762616Y-105292461D01*
X88135703Y-105043173D01*
X88384991Y-104670086D01*
X88472530Y-104230000D01*
X111527470Y-104230000D01*
X111615009Y-104670086D01*
X111864297Y-105043173D01*
X112237384Y-105292461D01*
X112677470Y-105380000D01*
X112722530Y-105380000D01*
X113162616Y-105292461D01*
X113535703Y-105043173D01*
X113784991Y-104670086D01*
X113872530Y-104230000D01*
X113784991Y-103789914D01*
X113535703Y-103416827D01*
X113162616Y-103167539D01*
X112722530Y-103080000D01*
X112677470Y-103080000D01*
X112237384Y-103167539D01*
X111864297Y-103416827D01*
X111615009Y-103789914D01*
X111527470Y-104230000D01*
X88472530Y-104230000D01*
X88384991Y-103789914D01*
X88135703Y-103416827D01*
X87762616Y-103167539D01*
X87322530Y-103080000D01*
X87277470Y-103080000D01*
X86837384Y-103167539D01*
X86464297Y-103416827D01*
X86215009Y-103789914D01*
X86127470Y-104230000D01*
X85375000Y-104230000D01*
X85375000Y-101690000D01*
X86127470Y-101690000D01*
X86215009Y-102130086D01*
X86464297Y-102503173D01*
X86837384Y-102752461D01*
X87277470Y-102840000D01*
X87322530Y-102840000D01*
X87762616Y-102752461D01*
X88135703Y-102503173D01*
X88384991Y-102130086D01*
X88472530Y-101690000D01*
X111527470Y-101690000D01*
X111615009Y-102130086D01*
X111864297Y-102503173D01*
X112237384Y-102752461D01*
X112677470Y-102840000D01*
X112722530Y-102840000D01*
X113162616Y-102752461D01*
X113535703Y-102503173D01*
X113784991Y-102130086D01*
X113872530Y-101690000D01*
X113784991Y-101249914D01*
X113535703Y-100876827D01*
X113162616Y-100627539D01*
X112722530Y-100540000D01*
X112677470Y-100540000D01*
X112237384Y-100627539D01*
X111864297Y-100876827D01*
X111615009Y-101249914D01*
X111527470Y-101690000D01*
X88472530Y-101690000D01*
X88384991Y-101249914D01*
X88135703Y-100876827D01*
X87762616Y-100627539D01*
X87322530Y-100540000D01*
X87277470Y-100540000D01*
X86837384Y-100627539D01*
X86464297Y-100876827D01*
X86215009Y-101249914D01*
X86127470Y-101690000D01*
X85375000Y-101690000D01*
X85375000Y-99150000D01*
X86127470Y-99150000D01*
X86215009Y-99590086D01*
X86464297Y-99963173D01*
X86837384Y-100212461D01*
X87277470Y-100300000D01*
X87322530Y-100300000D01*
X87762616Y-100212461D01*
X88135703Y-99963173D01*
X88384991Y-99590086D01*
X88472530Y-99150000D01*
X111527470Y-99150000D01*
X111615009Y-99590086D01*
X111864297Y-99963173D01*
X112237384Y-100212461D01*
X112677470Y-100300000D01*
X112722530Y-100300000D01*
X113162616Y-100212461D01*
X113535703Y-99963173D01*
X113784991Y-99590086D01*
X113872530Y-99150000D01*
X113784991Y-98709914D01*
X113535703Y-98336827D01*
X113162616Y-98087539D01*
X112722530Y-98000000D01*
X112677470Y-98000000D01*
X112237384Y-98087539D01*
X111864297Y-98336827D01*
X111615009Y-98709914D01*
X111527470Y-99150000D01*
X88472530Y-99150000D01*
X88384991Y-98709914D01*
X88135703Y-98336827D01*
X88019231Y-98259003D01*
X95713732Y-98259003D01*
X95804884Y-98479608D01*
X95973519Y-98648538D01*
X96193965Y-98740075D01*
X96432660Y-98740283D01*
X96653265Y-98649131D01*
X96822195Y-98480496D01*
X96913732Y-98260050D01*
X96913757Y-98230604D01*
X101673709Y-98230604D01*
X101764861Y-98451209D01*
X101933496Y-98620139D01*
X102153942Y-98711676D01*
X102392637Y-98711884D01*
X102613242Y-98620732D01*
X102782172Y-98452097D01*
X102873709Y-98231651D01*
X102873720Y-98218982D01*
X102927366Y-98165336D01*
X102927368Y-98165333D01*
X104262379Y-96830323D01*
X104262381Y-96830320D01*
X104315836Y-96776865D01*
X104327648Y-96776875D01*
X104548253Y-96685723D01*
X104624108Y-96610000D01*
X111527470Y-96610000D01*
X111615009Y-97050086D01*
X111864297Y-97423173D01*
X112237384Y-97672461D01*
X112677470Y-97760000D01*
X112722530Y-97760000D01*
X113162616Y-97672461D01*
X113535703Y-97423173D01*
X113784991Y-97050086D01*
X113872530Y-96610000D01*
X113784991Y-96169914D01*
X113535703Y-95796827D01*
X113162616Y-95547539D01*
X112722530Y-95460000D01*
X112677470Y-95460000D01*
X112237384Y-95547539D01*
X111864297Y-95796827D01*
X111615009Y-96169914D01*
X111527470Y-96610000D01*
X104624108Y-96610000D01*
X104717183Y-96517088D01*
X104808720Y-96296642D01*
X104808928Y-96057947D01*
X104717776Y-95837342D01*
X104549141Y-95668412D01*
X104328695Y-95576875D01*
X104090000Y-95576667D01*
X103869395Y-95667819D01*
X103700465Y-95836454D01*
X103608928Y-96056900D01*
X103608917Y-96069572D01*
X103555275Y-96123214D01*
X103555272Y-96123216D01*
X102220265Y-97458224D01*
X102220262Y-97458226D01*
X102166801Y-97511686D01*
X102154989Y-97511676D01*
X101934384Y-97602828D01*
X101765454Y-97771463D01*
X101673917Y-97991909D01*
X101673709Y-98230604D01*
X96913757Y-98230604D01*
X96913836Y-98141219D01*
X97491170Y-97563885D01*
X97726566Y-97564090D01*
X97748779Y-97554912D01*
X97828052Y-97746767D01*
X97996687Y-97915697D01*
X98217133Y-98007234D01*
X98455828Y-98007442D01*
X98676433Y-97916290D01*
X98845363Y-97747655D01*
X98936900Y-97527209D01*
X98937108Y-97288514D01*
X98845956Y-97067909D01*
X98762004Y-96983810D01*
X98762004Y-95626310D01*
X98838277Y-95550170D01*
X98929814Y-95329724D01*
X98930022Y-95091029D01*
X98838870Y-94870424D01*
X98670235Y-94701494D01*
X98449789Y-94609957D01*
X98211094Y-94609749D01*
X97990489Y-94700901D01*
X97821559Y-94869536D01*
X97730022Y-95089982D01*
X97729814Y-95328677D01*
X97820966Y-95549282D01*
X97912004Y-95640479D01*
X97912004Y-96440656D01*
X97727613Y-96364090D01*
X97488918Y-96363882D01*
X97268313Y-96455034D01*
X97099383Y-96623669D01*
X97007846Y-96844115D01*
X97007845Y-96845130D01*
X96312797Y-97540178D01*
X96195012Y-97540075D01*
X95974407Y-97631227D01*
X95805477Y-97799862D01*
X95713940Y-98020308D01*
X95713732Y-98259003D01*
X88019231Y-98259003D01*
X87762616Y-98087539D01*
X87322530Y-98000000D01*
X87277470Y-98000000D01*
X86837384Y-98087539D01*
X86464297Y-98336827D01*
X86215009Y-98709914D01*
X86127470Y-99150000D01*
X85375000Y-99150000D01*
X85375000Y-96610000D01*
X86127470Y-96610000D01*
X86215009Y-97050086D01*
X86464297Y-97423173D01*
X86837384Y-97672461D01*
X87277470Y-97760000D01*
X87322530Y-97760000D01*
X87762616Y-97672461D01*
X88135703Y-97423173D01*
X88384991Y-97050086D01*
X88472530Y-96610000D01*
X88384991Y-96169914D01*
X88135703Y-95796827D01*
X87762616Y-95547539D01*
X87322530Y-95460000D01*
X87277470Y-95460000D01*
X86837384Y-95547539D01*
X86464297Y-95796827D01*
X86215009Y-96169914D01*
X86127470Y-96610000D01*
X85375000Y-96610000D01*
X85375000Y-94070000D01*
X86127470Y-94070000D01*
X86215009Y-94510086D01*
X86464297Y-94883173D01*
X86837384Y-95132461D01*
X87277470Y-95220000D01*
X87322530Y-95220000D01*
X87762616Y-95132461D01*
X88135703Y-94883173D01*
X88384991Y-94510086D01*
X88472530Y-94070000D01*
X111527470Y-94070000D01*
X111615009Y-94510086D01*
X111864297Y-94883173D01*
X112237384Y-95132461D01*
X112677470Y-95220000D01*
X112722530Y-95220000D01*
X113162616Y-95132461D01*
X113535703Y-94883173D01*
X113784991Y-94510086D01*
X113872530Y-94070000D01*
X113784991Y-93629914D01*
X113535703Y-93256827D01*
X113162616Y-93007539D01*
X112722530Y-92920000D01*
X112677470Y-92920000D01*
X112237384Y-93007539D01*
X111864297Y-93256827D01*
X111615009Y-93629914D01*
X111527470Y-94070000D01*
X88472530Y-94070000D01*
X88384991Y-93629914D01*
X88135703Y-93256827D01*
X87762616Y-93007539D01*
X87322530Y-92920000D01*
X87277470Y-92920000D01*
X86837384Y-93007539D01*
X86464297Y-93256827D01*
X86215009Y-93629914D01*
X86127470Y-94070000D01*
X85375000Y-94070000D01*
X85375000Y-91530000D01*
X86127470Y-91530000D01*
X86215009Y-91970086D01*
X86464297Y-92343173D01*
X86837384Y-92592461D01*
X87277470Y-92680000D01*
X87322530Y-92680000D01*
X87762616Y-92592461D01*
X88135703Y-92343173D01*
X88384991Y-91970086D01*
X88472530Y-91530000D01*
X111527470Y-91530000D01*
X111615009Y-91970086D01*
X111864297Y-92343173D01*
X112237384Y-92592461D01*
X112677470Y-92680000D01*
X112722530Y-92680000D01*
X113162616Y-92592461D01*
X113535703Y-92343173D01*
X113784991Y-91970086D01*
X113872530Y-91530000D01*
X113784991Y-91089914D01*
X113535703Y-90716827D01*
X113162616Y-90467539D01*
X112722530Y-90380000D01*
X112677470Y-90380000D01*
X112237384Y-90467539D01*
X111864297Y-90716827D01*
X111615009Y-91089914D01*
X111527470Y-91530000D01*
X88472530Y-91530000D01*
X88384991Y-91089914D01*
X88135703Y-90716827D01*
X87762616Y-90467539D01*
X87322530Y-90380000D01*
X87277470Y-90380000D01*
X86837384Y-90467539D01*
X86464297Y-90716827D01*
X86215009Y-91089914D01*
X86127470Y-91530000D01*
X85375000Y-91530000D01*
X85375000Y-88990000D01*
X111527470Y-88990000D01*
X111615009Y-89430086D01*
X111864297Y-89803173D01*
X112237384Y-90052461D01*
X112677470Y-90140000D01*
X112722530Y-90140000D01*
X113162616Y-90052461D01*
X113535703Y-89803173D01*
X113784991Y-89430086D01*
X113872530Y-88990000D01*
X113784991Y-88549914D01*
X113535703Y-88176827D01*
X113162616Y-87927539D01*
X112722530Y-87840000D01*
X112677470Y-87840000D01*
X112237384Y-87927539D01*
X111864297Y-88176827D01*
X111615009Y-88549914D01*
X111527470Y-88990000D01*
X85375000Y-88990000D01*
X85375000Y-85600000D01*
X111544123Y-85600000D01*
X111544123Y-87300000D01*
X111565042Y-87411173D01*
X111630745Y-87513279D01*
X111730997Y-87581778D01*
X111850000Y-87605877D01*
X113550000Y-87605877D01*
X113661173Y-87584958D01*
X113763279Y-87519255D01*
X113831778Y-87419003D01*
X113855877Y-87300000D01*
X113855877Y-85600000D01*
X113834958Y-85488827D01*
X113769255Y-85386721D01*
X113669003Y-85318222D01*
X113550000Y-85294123D01*
X111850000Y-85294123D01*
X111738827Y-85315042D01*
X111636721Y-85380745D01*
X111568222Y-85480997D01*
X111544123Y-85600000D01*
X85375000Y-85600000D01*
X85375000Y-72875000D01*
X114625000Y-72875000D01*
X114625000Y-127125000D01*
X114625000Y-127125000D01*
G37*
X114625000Y-127125000D02*
X85375000Y-127125000D01*
X85375000Y-124550000D01*
X86127470Y-124550000D01*
X86215009Y-124990086D01*
X86464297Y-125363173D01*
X86837384Y-125612461D01*
X87277470Y-125700000D01*
X87322530Y-125700000D01*
X87762616Y-125612461D01*
X88135703Y-125363173D01*
X88384991Y-124990086D01*
X88472530Y-124550000D01*
X88384991Y-124109914D01*
X88135703Y-123736827D01*
X87762616Y-123487539D01*
X87322530Y-123400000D01*
X87277470Y-123400000D01*
X86837384Y-123487539D01*
X86464297Y-123736827D01*
X86215009Y-124109914D01*
X86127470Y-124550000D01*
X85375000Y-124550000D01*
X85375000Y-122010000D01*
X86127470Y-122010000D01*
X86215009Y-122450086D01*
X86464297Y-122823173D01*
X86837384Y-123072461D01*
X87277470Y-123160000D01*
X87322530Y-123160000D01*
X87762616Y-123072461D01*
X88135703Y-122823173D01*
X88384991Y-122450086D01*
X88472530Y-122010000D01*
X111527470Y-122010000D01*
X111615009Y-122450086D01*
X111864297Y-122823173D01*
X112237384Y-123072461D01*
X112677470Y-123160000D01*
X112722530Y-123160000D01*
X113162616Y-123072461D01*
X113535703Y-122823173D01*
X113784991Y-122450086D01*
X113872530Y-122010000D01*
X113784991Y-121569914D01*
X113535703Y-121196827D01*
X113162616Y-120947539D01*
X112722530Y-120860000D01*
X112677470Y-120860000D01*
X112237384Y-120947539D01*
X111864297Y-121196827D01*
X111615009Y-121569914D01*
X111527470Y-122010000D01*
X88472530Y-122010000D01*
X88384991Y-121569914D01*
X88135703Y-121196827D01*
X87762616Y-120947539D01*
X87322530Y-120860000D01*
X87277470Y-120860000D01*
X86837384Y-120947539D01*
X86464297Y-121196827D01*
X86215009Y-121569914D01*
X86127470Y-122010000D01*
X85375000Y-122010000D01*
X85375000Y-119470000D01*
X86127470Y-119470000D01*
X86215009Y-119910086D01*
X86464297Y-120283173D01*
X86837384Y-120532461D01*
X87277470Y-120620000D01*
X87322530Y-120620000D01*
X87762616Y-120532461D01*
X88135703Y-120283173D01*
X88384991Y-119910086D01*
X88472530Y-119470000D01*
X111527470Y-119470000D01*
X111615009Y-119910086D01*
X111864297Y-120283173D01*
X112237384Y-120532461D01*
X112677470Y-120620000D01*
X112722530Y-120620000D01*
X113162616Y-120532461D01*
X113535703Y-120283173D01*
X113784991Y-119910086D01*
X113872530Y-119470000D01*
X113784991Y-119029914D01*
X113535703Y-118656827D01*
X113162616Y-118407539D01*
X112722530Y-118320000D01*
X112677470Y-118320000D01*
X112237384Y-118407539D01*
X111864297Y-118656827D01*
X111615009Y-119029914D01*
X111527470Y-119470000D01*
X88472530Y-119470000D01*
X88384991Y-119029914D01*
X88135703Y-118656827D01*
X87762616Y-118407539D01*
X87322530Y-118320000D01*
X87277470Y-118320000D01*
X86837384Y-118407539D01*
X86464297Y-118656827D01*
X86215009Y-119029914D01*
X86127470Y-119470000D01*
X85375000Y-119470000D01*
X85375000Y-116930000D01*
X86127470Y-116930000D01*
X86215009Y-117370086D01*
X86464297Y-117743173D01*
X86837384Y-117992461D01*
X87277470Y-118080000D01*
X87322530Y-118080000D01*
X87762616Y-117992461D01*
X88135703Y-117743173D01*
X88384991Y-117370086D01*
X88472530Y-116930000D01*
X111527470Y-116930000D01*
X111615009Y-117370086D01*
X111864297Y-117743173D01*
X112237384Y-117992461D01*
X112677470Y-118080000D01*
X112722530Y-118080000D01*
X113162616Y-117992461D01*
X113535703Y-117743173D01*
X113784991Y-117370086D01*
X113872530Y-116930000D01*
X113784991Y-116489914D01*
X113535703Y-116116827D01*
X113162616Y-115867539D01*
X112722530Y-115780000D01*
X112677470Y-115780000D01*
X112237384Y-115867539D01*
X111864297Y-116116827D01*
X111615009Y-116489914D01*
X111527470Y-116930000D01*
X88472530Y-116930000D01*
X88384991Y-116489914D01*
X88135703Y-116116827D01*
X87762616Y-115867539D01*
X87322530Y-115780000D01*
X87277470Y-115780000D01*
X86837384Y-115867539D01*
X86464297Y-116116827D01*
X86215009Y-116489914D01*
X86127470Y-116930000D01*
X85375000Y-116930000D01*
X85375000Y-114390000D01*
X86127470Y-114390000D01*
X86215009Y-114830086D01*
X86464297Y-115203173D01*
X86837384Y-115452461D01*
X87277470Y-115540000D01*
X87322530Y-115540000D01*
X87762616Y-115452461D01*
X88135703Y-115203173D01*
X88384991Y-114830086D01*
X88472530Y-114390000D01*
X111527470Y-114390000D01*
X111615009Y-114830086D01*
X111864297Y-115203173D01*
X112237384Y-115452461D01*
X112677470Y-115540000D01*
X112722530Y-115540000D01*
X113162616Y-115452461D01*
X113535703Y-115203173D01*
X113784991Y-114830086D01*
X113872530Y-114390000D01*
X113784991Y-113949914D01*
X113535703Y-113576827D01*
X113162616Y-113327539D01*
X112722530Y-113240000D01*
X112677470Y-113240000D01*
X112237384Y-113327539D01*
X111864297Y-113576827D01*
X111615009Y-113949914D01*
X111527470Y-114390000D01*
X88472530Y-114390000D01*
X88384991Y-113949914D01*
X88135703Y-113576827D01*
X87762616Y-113327539D01*
X87322530Y-113240000D01*
X87277470Y-113240000D01*
X86837384Y-113327539D01*
X86464297Y-113576827D01*
X86215009Y-113949914D01*
X86127470Y-114390000D01*
X85375000Y-114390000D01*
X85375000Y-111850000D01*
X86127470Y-111850000D01*
X86215009Y-112290086D01*
X86464297Y-112663173D01*
X86837384Y-112912461D01*
X87277470Y-113000000D01*
X87322530Y-113000000D01*
X87762616Y-112912461D01*
X88135703Y-112663173D01*
X88384991Y-112290086D01*
X88387992Y-112275000D01*
X88804833Y-112275000D01*
X89233005Y-112703173D01*
X89233008Y-112703175D01*
X89233524Y-112703691D01*
X89233421Y-112821476D01*
X89324573Y-113042081D01*
X89493208Y-113211011D01*
X89713654Y-113302548D01*
X89952349Y-113302756D01*
X90172954Y-113211604D01*
X90341884Y-113042969D01*
X90433421Y-112822523D01*
X90433629Y-112583828D01*
X90342477Y-112363223D01*
X90173842Y-112194293D01*
X89953396Y-112102756D01*
X89834565Y-112102652D01*
X89834048Y-112102135D01*
X89834046Y-112102132D01*
X89581914Y-111850000D01*
X111527470Y-111850000D01*
X111615009Y-112290086D01*
X111864297Y-112663173D01*
X112237384Y-112912461D01*
X112677470Y-113000000D01*
X112722530Y-113000000D01*
X113162616Y-112912461D01*
X113535703Y-112663173D01*
X113784991Y-112290086D01*
X113872530Y-111850000D01*
X113784991Y-111409914D01*
X113535703Y-111036827D01*
X113162616Y-110787539D01*
X112722530Y-110700000D01*
X112677470Y-110700000D01*
X112237384Y-110787539D01*
X111864297Y-111036827D01*
X111615009Y-111409914D01*
X111527470Y-111850000D01*
X89581914Y-111850000D01*
X89281393Y-111549480D01*
X89143514Y-111457351D01*
X89116530Y-111451984D01*
X88980873Y-111425000D01*
X88387992Y-111425000D01*
X88384991Y-111409914D01*
X88135703Y-111036827D01*
X87762616Y-110787539D01*
X87322530Y-110700000D01*
X87277470Y-110700000D01*
X86837384Y-110787539D01*
X86464297Y-111036827D01*
X86215009Y-111409914D01*
X86127470Y-111850000D01*
X85375000Y-111850000D01*
X85375000Y-109310000D01*
X86127470Y-109310000D01*
X86215009Y-109750086D01*
X86464297Y-110123173D01*
X86837384Y-110372461D01*
X87277470Y-110460000D01*
X87322530Y-110460000D01*
X87762616Y-110372461D01*
X88135703Y-110123173D01*
X88384991Y-109750086D01*
X88472530Y-109310000D01*
X111527470Y-109310000D01*
X111615009Y-109750086D01*
X111864297Y-110123173D01*
X112237384Y-110372461D01*
X112677470Y-110460000D01*
X112722530Y-110460000D01*
X113162616Y-110372461D01*
X113535703Y-110123173D01*
X113784991Y-109750086D01*
X113872530Y-109310000D01*
X113784991Y-108869914D01*
X113535703Y-108496827D01*
X113162616Y-108247539D01*
X112722530Y-108160000D01*
X112677470Y-108160000D01*
X112237384Y-108247539D01*
X111864297Y-108496827D01*
X111615009Y-108869914D01*
X111527470Y-109310000D01*
X88472530Y-109310000D01*
X88384991Y-108869914D01*
X88135703Y-108496827D01*
X87762616Y-108247539D01*
X87322530Y-108160000D01*
X87277470Y-108160000D01*
X86837384Y-108247539D01*
X86464297Y-108496827D01*
X86215009Y-108869914D01*
X86127470Y-109310000D01*
X85375000Y-109310000D01*
X85375000Y-106770000D01*
X86127470Y-106770000D01*
X86215009Y-107210086D01*
X86464297Y-107583173D01*
X86837384Y-107832461D01*
X87277470Y-107920000D01*
X87322530Y-107920000D01*
X87762616Y-107832461D01*
X88135703Y-107583173D01*
X88384991Y-107210086D01*
X88472530Y-106770000D01*
X111527470Y-106770000D01*
X111615009Y-107210086D01*
X111864297Y-107583173D01*
X112237384Y-107832461D01*
X112677470Y-107920000D01*
X112722530Y-107920000D01*
X113162616Y-107832461D01*
X113535703Y-107583173D01*
X113784991Y-107210086D01*
X113872530Y-106770000D01*
X113784991Y-106329914D01*
X113535703Y-105956827D01*
X113162616Y-105707539D01*
X112722530Y-105620000D01*
X112677470Y-105620000D01*
X112237384Y-105707539D01*
X111864297Y-105956827D01*
X111615009Y-106329914D01*
X111527470Y-106770000D01*
X88472530Y-106770000D01*
X88384991Y-106329914D01*
X88135703Y-105956827D01*
X87762616Y-105707539D01*
X87322530Y-105620000D01*
X87277470Y-105620000D01*
X86837384Y-105707539D01*
X86464297Y-105956827D01*
X86215009Y-106329914D01*
X86127470Y-106770000D01*
X85375000Y-106770000D01*
X85375000Y-104230000D01*
X86127470Y-104230000D01*
X86215009Y-104670086D01*
X86464297Y-105043173D01*
X86837384Y-105292461D01*
X87277470Y-105380000D01*
X87322530Y-105380000D01*
X87762616Y-105292461D01*
X88135703Y-105043173D01*
X88384991Y-104670086D01*
X88472530Y-104230000D01*
X111527470Y-104230000D01*
X111615009Y-104670086D01*
X111864297Y-105043173D01*
X112237384Y-105292461D01*
X112677470Y-105380000D01*
X112722530Y-105380000D01*
X113162616Y-105292461D01*
X113535703Y-105043173D01*
X113784991Y-104670086D01*
X113872530Y-104230000D01*
X113784991Y-103789914D01*
X113535703Y-103416827D01*
X113162616Y-103167539D01*
X112722530Y-103080000D01*
X112677470Y-103080000D01*
X112237384Y-103167539D01*
X111864297Y-103416827D01*
X111615009Y-103789914D01*
X111527470Y-104230000D01*
X88472530Y-104230000D01*
X88384991Y-103789914D01*
X88135703Y-103416827D01*
X87762616Y-103167539D01*
X87322530Y-103080000D01*
X87277470Y-103080000D01*
X86837384Y-103167539D01*
X86464297Y-103416827D01*
X86215009Y-103789914D01*
X86127470Y-104230000D01*
X85375000Y-104230000D01*
X85375000Y-101690000D01*
X86127470Y-101690000D01*
X86215009Y-102130086D01*
X86464297Y-102503173D01*
X86837384Y-102752461D01*
X87277470Y-102840000D01*
X87322530Y-102840000D01*
X87762616Y-102752461D01*
X88135703Y-102503173D01*
X88384991Y-102130086D01*
X88472530Y-101690000D01*
X111527470Y-101690000D01*
X111615009Y-102130086D01*
X111864297Y-102503173D01*
X112237384Y-102752461D01*
X112677470Y-102840000D01*
X112722530Y-102840000D01*
X113162616Y-102752461D01*
X113535703Y-102503173D01*
X113784991Y-102130086D01*
X113872530Y-101690000D01*
X113784991Y-101249914D01*
X113535703Y-100876827D01*
X113162616Y-100627539D01*
X112722530Y-100540000D01*
X112677470Y-100540000D01*
X112237384Y-100627539D01*
X111864297Y-100876827D01*
X111615009Y-101249914D01*
X111527470Y-101690000D01*
X88472530Y-101690000D01*
X88384991Y-101249914D01*
X88135703Y-100876827D01*
X87762616Y-100627539D01*
X87322530Y-100540000D01*
X87277470Y-100540000D01*
X86837384Y-100627539D01*
X86464297Y-100876827D01*
X86215009Y-101249914D01*
X86127470Y-101690000D01*
X85375000Y-101690000D01*
X85375000Y-99150000D01*
X86127470Y-99150000D01*
X86215009Y-99590086D01*
X86464297Y-99963173D01*
X86837384Y-100212461D01*
X87277470Y-100300000D01*
X87322530Y-100300000D01*
X87762616Y-100212461D01*
X88135703Y-99963173D01*
X88384991Y-99590086D01*
X88472530Y-99150000D01*
X111527470Y-99150000D01*
X111615009Y-99590086D01*
X111864297Y-99963173D01*
X112237384Y-100212461D01*
X112677470Y-100300000D01*
X112722530Y-100300000D01*
X113162616Y-100212461D01*
X113535703Y-99963173D01*
X113784991Y-99590086D01*
X113872530Y-99150000D01*
X113784991Y-98709914D01*
X113535703Y-98336827D01*
X113162616Y-98087539D01*
X112722530Y-98000000D01*
X112677470Y-98000000D01*
X112237384Y-98087539D01*
X111864297Y-98336827D01*
X111615009Y-98709914D01*
X111527470Y-99150000D01*
X88472530Y-99150000D01*
X88384991Y-98709914D01*
X88135703Y-98336827D01*
X88019231Y-98259003D01*
X95713732Y-98259003D01*
X95804884Y-98479608D01*
X95973519Y-98648538D01*
X96193965Y-98740075D01*
X96432660Y-98740283D01*
X96653265Y-98649131D01*
X96822195Y-98480496D01*
X96913732Y-98260050D01*
X96913757Y-98230604D01*
X101673709Y-98230604D01*
X101764861Y-98451209D01*
X101933496Y-98620139D01*
X102153942Y-98711676D01*
X102392637Y-98711884D01*
X102613242Y-98620732D01*
X102782172Y-98452097D01*
X102873709Y-98231651D01*
X102873720Y-98218982D01*
X102927366Y-98165336D01*
X102927368Y-98165333D01*
X104262379Y-96830323D01*
X104262381Y-96830320D01*
X104315836Y-96776865D01*
X104327648Y-96776875D01*
X104548253Y-96685723D01*
X104624108Y-96610000D01*
X111527470Y-96610000D01*
X111615009Y-97050086D01*
X111864297Y-97423173D01*
X112237384Y-97672461D01*
X112677470Y-97760000D01*
X112722530Y-97760000D01*
X113162616Y-97672461D01*
X113535703Y-97423173D01*
X113784991Y-97050086D01*
X113872530Y-96610000D01*
X113784991Y-96169914D01*
X113535703Y-95796827D01*
X113162616Y-95547539D01*
X112722530Y-95460000D01*
X112677470Y-95460000D01*
X112237384Y-95547539D01*
X111864297Y-95796827D01*
X111615009Y-96169914D01*
X111527470Y-96610000D01*
X104624108Y-96610000D01*
X104717183Y-96517088D01*
X104808720Y-96296642D01*
X104808928Y-96057947D01*
X104717776Y-95837342D01*
X104549141Y-95668412D01*
X104328695Y-95576875D01*
X104090000Y-95576667D01*
X103869395Y-95667819D01*
X103700465Y-95836454D01*
X103608928Y-96056900D01*
X103608917Y-96069572D01*
X103555275Y-96123214D01*
X103555272Y-96123216D01*
X102220265Y-97458224D01*
X102220262Y-97458226D01*
X102166801Y-97511686D01*
X102154989Y-97511676D01*
X101934384Y-97602828D01*
X101765454Y-97771463D01*
X101673917Y-97991909D01*
X101673709Y-98230604D01*
X96913757Y-98230604D01*
X96913836Y-98141219D01*
X97491170Y-97563885D01*
X97726566Y-97564090D01*
X97748779Y-97554912D01*
X97828052Y-97746767D01*
X97996687Y-97915697D01*
X98217133Y-98007234D01*
X98455828Y-98007442D01*
X98676433Y-97916290D01*
X98845363Y-97747655D01*
X98936900Y-97527209D01*
X98937108Y-97288514D01*
X98845956Y-97067909D01*
X98762004Y-96983810D01*
X98762004Y-95626310D01*
X98838277Y-95550170D01*
X98929814Y-95329724D01*
X98930022Y-95091029D01*
X98838870Y-94870424D01*
X98670235Y-94701494D01*
X98449789Y-94609957D01*
X98211094Y-94609749D01*
X97990489Y-94700901D01*
X97821559Y-94869536D01*
X97730022Y-95089982D01*
X97729814Y-95328677D01*
X97820966Y-95549282D01*
X97912004Y-95640479D01*
X97912004Y-96440656D01*
X97727613Y-96364090D01*
X97488918Y-96363882D01*
X97268313Y-96455034D01*
X97099383Y-96623669D01*
X97007846Y-96844115D01*
X97007845Y-96845130D01*
X96312797Y-97540178D01*
X96195012Y-97540075D01*
X95974407Y-97631227D01*
X95805477Y-97799862D01*
X95713940Y-98020308D01*
X95713732Y-98259003D01*
X88019231Y-98259003D01*
X87762616Y-98087539D01*
X87322530Y-98000000D01*
X87277470Y-98000000D01*
X86837384Y-98087539D01*
X86464297Y-98336827D01*
X86215009Y-98709914D01*
X86127470Y-99150000D01*
X85375000Y-99150000D01*
X85375000Y-96610000D01*
X86127470Y-96610000D01*
X86215009Y-97050086D01*
X86464297Y-97423173D01*
X86837384Y-97672461D01*
X87277470Y-97760000D01*
X87322530Y-97760000D01*
X87762616Y-97672461D01*
X88135703Y-97423173D01*
X88384991Y-97050086D01*
X88472530Y-96610000D01*
X88384991Y-96169914D01*
X88135703Y-95796827D01*
X87762616Y-95547539D01*
X87322530Y-95460000D01*
X87277470Y-95460000D01*
X86837384Y-95547539D01*
X86464297Y-95796827D01*
X86215009Y-96169914D01*
X86127470Y-96610000D01*
X85375000Y-96610000D01*
X85375000Y-94070000D01*
X86127470Y-94070000D01*
X86215009Y-94510086D01*
X86464297Y-94883173D01*
X86837384Y-95132461D01*
X87277470Y-95220000D01*
X87322530Y-95220000D01*
X87762616Y-95132461D01*
X88135703Y-94883173D01*
X88384991Y-94510086D01*
X88472530Y-94070000D01*
X111527470Y-94070000D01*
X111615009Y-94510086D01*
X111864297Y-94883173D01*
X112237384Y-95132461D01*
X112677470Y-95220000D01*
X112722530Y-95220000D01*
X113162616Y-95132461D01*
X113535703Y-94883173D01*
X113784991Y-94510086D01*
X113872530Y-94070000D01*
X113784991Y-93629914D01*
X113535703Y-93256827D01*
X113162616Y-93007539D01*
X112722530Y-92920000D01*
X112677470Y-92920000D01*
X112237384Y-93007539D01*
X111864297Y-93256827D01*
X111615009Y-93629914D01*
X111527470Y-94070000D01*
X88472530Y-94070000D01*
X88384991Y-93629914D01*
X88135703Y-93256827D01*
X87762616Y-93007539D01*
X87322530Y-92920000D01*
X87277470Y-92920000D01*
X86837384Y-93007539D01*
X86464297Y-93256827D01*
X86215009Y-93629914D01*
X86127470Y-94070000D01*
X85375000Y-94070000D01*
X85375000Y-91530000D01*
X86127470Y-91530000D01*
X86215009Y-91970086D01*
X86464297Y-92343173D01*
X86837384Y-92592461D01*
X87277470Y-92680000D01*
X87322530Y-92680000D01*
X87762616Y-92592461D01*
X88135703Y-92343173D01*
X88384991Y-91970086D01*
X88472530Y-91530000D01*
X111527470Y-91530000D01*
X111615009Y-91970086D01*
X111864297Y-92343173D01*
X112237384Y-92592461D01*
X112677470Y-92680000D01*
X112722530Y-92680000D01*
X113162616Y-92592461D01*
X113535703Y-92343173D01*
X113784991Y-91970086D01*
X113872530Y-91530000D01*
X113784991Y-91089914D01*
X113535703Y-90716827D01*
X113162616Y-90467539D01*
X112722530Y-90380000D01*
X112677470Y-90380000D01*
X112237384Y-90467539D01*
X111864297Y-90716827D01*
X111615009Y-91089914D01*
X111527470Y-91530000D01*
X88472530Y-91530000D01*
X88384991Y-91089914D01*
X88135703Y-90716827D01*
X87762616Y-90467539D01*
X87322530Y-90380000D01*
X87277470Y-90380000D01*
X86837384Y-90467539D01*
X86464297Y-90716827D01*
X86215009Y-91089914D01*
X86127470Y-91530000D01*
X85375000Y-91530000D01*
X85375000Y-88990000D01*
X111527470Y-88990000D01*
X111615009Y-89430086D01*
X111864297Y-89803173D01*
X112237384Y-90052461D01*
X112677470Y-90140000D01*
X112722530Y-90140000D01*
X113162616Y-90052461D01*
X113535703Y-89803173D01*
X113784991Y-89430086D01*
X113872530Y-88990000D01*
X113784991Y-88549914D01*
X113535703Y-88176827D01*
X113162616Y-87927539D01*
X112722530Y-87840000D01*
X112677470Y-87840000D01*
X112237384Y-87927539D01*
X111864297Y-88176827D01*
X111615009Y-88549914D01*
X111527470Y-88990000D01*
X85375000Y-88990000D01*
X85375000Y-85600000D01*
X111544123Y-85600000D01*
X111544123Y-87300000D01*
X111565042Y-87411173D01*
X111630745Y-87513279D01*
X111730997Y-87581778D01*
X111850000Y-87605877D01*
X113550000Y-87605877D01*
X113661173Y-87584958D01*
X113763279Y-87519255D01*
X113831778Y-87419003D01*
X113855877Y-87300000D01*
X113855877Y-85600000D01*
X113834958Y-85488827D01*
X113769255Y-85386721D01*
X113669003Y-85318222D01*
X113550000Y-85294123D01*
X111850000Y-85294123D01*
X111738827Y-85315042D01*
X111636721Y-85380745D01*
X111568222Y-85480997D01*
X111544123Y-85600000D01*
X85375000Y-85600000D01*
X85375000Y-72875000D01*
X114625000Y-72875000D01*
X114625000Y-127125000D01*
M02*
