G04 #@! TF.FileFunction,Soldermask,Bot*
%FSLAX46Y46*%
G04 Gerber Fmt 4.6, Leading zero omitted, Abs format (unit mm)*
G04 Created by KiCad (PCBNEW 4.0.7) date 07/17/18 20:37:52*
%MOMM*%
%LPD*%
G01*
G04 APERTURE LIST*
%ADD10C,0.100000*%
%ADD11R,1.800000X1.800000*%
%ADD12O,1.800000X1.800000*%
%ADD13C,0.254000*%
G04 APERTURE END LIST*
D10*
D11*
X112700000Y-86450000D03*
D12*
X112700000Y-88990000D03*
X112700000Y-91530000D03*
X112700000Y-94070000D03*
X112700000Y-96610000D03*
X112700000Y-99150000D03*
X112700000Y-101690000D03*
X112700000Y-104230000D03*
X112700000Y-106770000D03*
X112700000Y-109310000D03*
X112700000Y-111850000D03*
X112700000Y-114390000D03*
X112700000Y-116930000D03*
X112700000Y-119470000D03*
X112700000Y-122010000D03*
X112700000Y-124550000D03*
D11*
X87300000Y-86450000D03*
D12*
X87300000Y-88990000D03*
X87300000Y-91530000D03*
X87300000Y-94070000D03*
X87300000Y-96610000D03*
X87300000Y-99150000D03*
X87300000Y-101690000D03*
X87300000Y-104230000D03*
X87300000Y-106770000D03*
X87300000Y-109310000D03*
X87300000Y-111850000D03*
X87300000Y-114390000D03*
X87300000Y-116930000D03*
X87300000Y-119470000D03*
X87300000Y-122010000D03*
X87300000Y-124550000D03*
D13*
G36*
X100734395Y-76990820D02*
X101468623Y-78211225D01*
X101941150Y-79156279D01*
X102426457Y-80849902D01*
X102674794Y-82101523D01*
X102924277Y-83817961D01*
X102924276Y-83817961D01*
X103040394Y-84630788D01*
X102739803Y-84330197D01*
X102710211Y-84308180D01*
X102580211Y-84238180D01*
X102531963Y-84223565D01*
X102489198Y-84226792D01*
X102369198Y-84256792D01*
X102310197Y-84290197D01*
X102240197Y-84360197D01*
X102206792Y-84419198D01*
X102176792Y-84539198D01*
X102174515Y-84589560D01*
X102186408Y-84626796D01*
X102246408Y-84746796D01*
X102270197Y-84779803D01*
X105173000Y-87682606D01*
X105173000Y-89263394D01*
X104219803Y-88310197D01*
X104200447Y-88294330D01*
X104170447Y-88274330D01*
X104156796Y-88266408D01*
X104116796Y-88246408D01*
X104080879Y-88234728D01*
X104020879Y-88224728D01*
X103979121Y-88224728D01*
X103919121Y-88234728D01*
X103883204Y-88246408D01*
X103843204Y-88266408D01*
X103829553Y-88274330D01*
X103799553Y-88294330D01*
X103780197Y-88310197D01*
X103750197Y-88340197D01*
X103726408Y-88373204D01*
X103696408Y-88433204D01*
X103685466Y-88465093D01*
X103675466Y-88515093D01*
X103673000Y-88540000D01*
X103673000Y-90263394D01*
X101827000Y-88417394D01*
X101827000Y-86530000D01*
X101823208Y-86499198D01*
X101813208Y-86459198D01*
X101810483Y-86449839D01*
X101800483Y-86419839D01*
X101785670Y-86389553D01*
X101765670Y-86359553D01*
X101749803Y-86340197D01*
X100327000Y-84917394D01*
X100327000Y-76443383D01*
X100734395Y-76990820D01*
X100734395Y-76990820D01*
G37*
X100734395Y-76990820D02*
X101468623Y-78211225D01*
X101941150Y-79156279D01*
X102426457Y-80849902D01*
X102674794Y-82101523D01*
X102924277Y-83817961D01*
X102924276Y-83817961D01*
X103040394Y-84630788D01*
X102739803Y-84330197D01*
X102710211Y-84308180D01*
X102580211Y-84238180D01*
X102531963Y-84223565D01*
X102489198Y-84226792D01*
X102369198Y-84256792D01*
X102310197Y-84290197D01*
X102240197Y-84360197D01*
X102206792Y-84419198D01*
X102176792Y-84539198D01*
X102174515Y-84589560D01*
X102186408Y-84626796D01*
X102246408Y-84746796D01*
X102270197Y-84779803D01*
X105173000Y-87682606D01*
X105173000Y-89263394D01*
X104219803Y-88310197D01*
X104200447Y-88294330D01*
X104170447Y-88274330D01*
X104156796Y-88266408D01*
X104116796Y-88246408D01*
X104080879Y-88234728D01*
X104020879Y-88224728D01*
X103979121Y-88224728D01*
X103919121Y-88234728D01*
X103883204Y-88246408D01*
X103843204Y-88266408D01*
X103829553Y-88274330D01*
X103799553Y-88294330D01*
X103780197Y-88310197D01*
X103750197Y-88340197D01*
X103726408Y-88373204D01*
X103696408Y-88433204D01*
X103685466Y-88465093D01*
X103675466Y-88515093D01*
X103673000Y-88540000D01*
X103673000Y-90263394D01*
X101827000Y-88417394D01*
X101827000Y-86530000D01*
X101823208Y-86499198D01*
X101813208Y-86459198D01*
X101810483Y-86449839D01*
X101800483Y-86419839D01*
X101785670Y-86389553D01*
X101765670Y-86359553D01*
X101749803Y-86340197D01*
X100327000Y-84917394D01*
X100327000Y-76443383D01*
X100734395Y-76990820D01*
G36*
X99673000Y-84917394D02*
X98250197Y-86340197D01*
X98234330Y-86359553D01*
X98214330Y-86389553D01*
X98199517Y-86419839D01*
X98189517Y-86449839D01*
X98186792Y-86459198D01*
X98176792Y-86499198D01*
X98173000Y-86530000D01*
X98173000Y-88417394D01*
X96327000Y-90263394D01*
X96327000Y-88540000D01*
X96324534Y-88515093D01*
X96314534Y-88465093D01*
X96303592Y-88433204D01*
X96273592Y-88373204D01*
X96249803Y-88340197D01*
X96219803Y-88310197D01*
X96200447Y-88294330D01*
X96170447Y-88274330D01*
X96156796Y-88266408D01*
X96116796Y-88246408D01*
X96080879Y-88234728D01*
X96020879Y-88224728D01*
X95979121Y-88224728D01*
X95919121Y-88234728D01*
X95883204Y-88246408D01*
X95843204Y-88266408D01*
X95829553Y-88274330D01*
X95799553Y-88294330D01*
X95780197Y-88310197D01*
X94827000Y-89263394D01*
X94827000Y-87682509D01*
X96714698Y-85789908D01*
X97729581Y-84780024D01*
X97753592Y-84746796D01*
X97813592Y-84626796D01*
X97826740Y-84578128D01*
X97823208Y-84539198D01*
X97793208Y-84419198D01*
X97759803Y-84360197D01*
X97689803Y-84290197D01*
X97630802Y-84256792D01*
X97510802Y-84226792D01*
X97460440Y-84224515D01*
X97419789Y-84238180D01*
X97289789Y-84308180D01*
X97260197Y-84330197D01*
X96959606Y-84630788D01*
X97075724Y-83817961D01*
X97075723Y-83817961D01*
X97325206Y-82101523D01*
X97573543Y-80849902D01*
X98058850Y-79156279D01*
X98531377Y-78211225D01*
X99265605Y-76990820D01*
X99673000Y-76443383D01*
X99673000Y-84917394D01*
X99673000Y-84917394D01*
G37*
X99673000Y-84917394D02*
X98250197Y-86340197D01*
X98234330Y-86359553D01*
X98214330Y-86389553D01*
X98199517Y-86419839D01*
X98189517Y-86449839D01*
X98186792Y-86459198D01*
X98176792Y-86499198D01*
X98173000Y-86530000D01*
X98173000Y-88417394D01*
X96327000Y-90263394D01*
X96327000Y-88540000D01*
X96324534Y-88515093D01*
X96314534Y-88465093D01*
X96303592Y-88433204D01*
X96273592Y-88373204D01*
X96249803Y-88340197D01*
X96219803Y-88310197D01*
X96200447Y-88294330D01*
X96170447Y-88274330D01*
X96156796Y-88266408D01*
X96116796Y-88246408D01*
X96080879Y-88234728D01*
X96020879Y-88224728D01*
X95979121Y-88224728D01*
X95919121Y-88234728D01*
X95883204Y-88246408D01*
X95843204Y-88266408D01*
X95829553Y-88274330D01*
X95799553Y-88294330D01*
X95780197Y-88310197D01*
X94827000Y-89263394D01*
X94827000Y-87682509D01*
X96714698Y-85789908D01*
X97729581Y-84780024D01*
X97753592Y-84746796D01*
X97813592Y-84626796D01*
X97826740Y-84578128D01*
X97823208Y-84539198D01*
X97793208Y-84419198D01*
X97759803Y-84360197D01*
X97689803Y-84290197D01*
X97630802Y-84256792D01*
X97510802Y-84226792D01*
X97460440Y-84224515D01*
X97419789Y-84238180D01*
X97289789Y-84308180D01*
X97260197Y-84330197D01*
X96959606Y-84630788D01*
X97075724Y-83817961D01*
X97075723Y-83817961D01*
X97325206Y-82101523D01*
X97573543Y-80849902D01*
X98058850Y-79156279D01*
X98531377Y-78211225D01*
X99265605Y-76990820D01*
X99673000Y-76443383D01*
X99673000Y-84917394D01*
M02*
