M48
METRIC,TZ
T1C0.300
T2C0.400
T3C1.000
%
G90
G05
T1
X99100Y-106600
X99100Y-108400
X100000Y-107500
X100900Y-106600
X100900Y-108400
T2
X87000Y-75000
X87000Y-77000
X87000Y-79000
X87000Y-81000
X87000Y-83000
X89000Y-75000
X89000Y-83000
X91000Y-75000
X91000Y-83000
X91000Y-85000
X91000Y-87000
X91000Y-89000
X91000Y-91000
X91000Y-93000
X91000Y-95000
X91000Y-97000
X91000Y-99000
X91000Y-113000
X91000Y-115000
X91000Y-117000
X91000Y-119000
X91000Y-121000
X91000Y-123000
X91000Y-125000
X93000Y-75000
X93000Y-97000
X93000Y-99000
X93000Y-113000
X93000Y-115000
X93000Y-117000
X93000Y-119000
X93000Y-121000
X93000Y-123000
X93000Y-125000
X94801Y-108320
X95000Y-75000
X95000Y-97000
X95000Y-99000
X95000Y-104500
X95000Y-111295
X95000Y-113000
X95000Y-115000
X95000Y-117000
X95000Y-119000
X95000Y-121000
X95000Y-123000
X95000Y-125000
X96400Y-111000
X96865Y-100365
X97000Y-75000
X97000Y-97000
X97000Y-99000
X97000Y-102750
X97000Y-123000
X97000Y-124000
X97000Y-125000
X97250Y-113250
X98000Y-102750
X98000Y-117000
X98000Y-120500
X98067Y-101567
X99000Y-75000
X99000Y-97000
X99000Y-99000
X100000Y-124000
X101000Y-75000
X101000Y-97000
X101000Y-99000
X101250Y-102750
X101250Y-103750
X102000Y-113250
X103000Y-75000
X103000Y-97000
X103000Y-99000
X103000Y-123000
X103000Y-124000
X103000Y-125000
X104000Y-111225
X104205Y-106461
X104250Y-110000
X105000Y-75000
X105000Y-97000
X105000Y-99000
X105000Y-101000
X105000Y-113000
X105000Y-115000
X105000Y-117000
X105000Y-119000
X105000Y-121000
X105000Y-123000
X105000Y-125000
X107000Y-75000
X107000Y-97000
X107000Y-99000
X107000Y-101000
X107000Y-103000
X107000Y-113000
X107000Y-115000
X107000Y-117000
X107000Y-119000
X107000Y-121000
X107000Y-123000
X107000Y-125000
X109000Y-75000
X109000Y-83000
X109000Y-85000
X109000Y-85000
X109000Y-87000
X109000Y-89000
X109000Y-91000
X109000Y-93000
X109000Y-95000
X109000Y-97000
X109000Y-97000
X109000Y-99000
X109000Y-101000
X109000Y-103000
X109000Y-113000
X109000Y-115000
X109000Y-117000
X109000Y-119000
X109000Y-121000
X109000Y-123000
X109000Y-125000
X111000Y-75000
X111000Y-83000
X113000Y-75000
X113000Y-77000
X113000Y-79000
X113000Y-81000
X113000Y-83000
T3
X87300Y-86450
X87300Y-88990
X87300Y-91530
X87300Y-94070
X87300Y-96610
X87300Y-99150
X87300Y-101690
X87300Y-104230
X87300Y-106770
X87300Y-109310
X87300Y-111850
X87300Y-114390
X87300Y-116930
X87300Y-119470
X87300Y-122010
X87300Y-124550
X112700Y-86450
X112700Y-88990
X112700Y-91530
X112700Y-94070
X112700Y-96610
X112700Y-99150
X112700Y-101690
X112700Y-104230
X112700Y-106770
X112700Y-109310
X112700Y-111850
X112700Y-114390
X112700Y-116930
X112700Y-119470
X112700Y-122010
X112700Y-124550
T0
M30
