G04 #@! TF.FileFunction,Legend,Top*
%FSLAX46Y46*%
G04 Gerber Fmt 4.6, Leading zero omitted, Abs format (unit mm)*
G04 Created by KiCad (PCBNEW 4.0.7) date 07/20/18 18:28:50*
%MOMM*%
%LPD*%
G01*
G04 APERTURE LIST*
%ADD10C,0.100000*%
%ADD11C,0.400000*%
%ADD12C,0.300000*%
%ADD13C,0.150000*%
%ADD14C,0.125000*%
%ADD15C,0.200000*%
%ADD16C,0.120000*%
G04 APERTURE END LIST*
D10*
D11*
X101000000Y-74800000D02*
X100000000Y-73500000D01*
X99000000Y-74800000D02*
X100000000Y-73500000D01*
D12*
X113164286Y-84178571D02*
X112664286Y-83464286D01*
X112307143Y-84178571D02*
X112307143Y-82678571D01*
X112878571Y-82678571D01*
X113021429Y-82750000D01*
X113092857Y-82821429D01*
X113164286Y-82964286D01*
X113164286Y-83178571D01*
X113092857Y-83321429D01*
X113021429Y-83392857D01*
X112878571Y-83464286D01*
X112307143Y-83464286D01*
X87764286Y-84178571D02*
X87050000Y-84178571D01*
X87050000Y-82678571D01*
D13*
X92660714Y-108696429D02*
X92625000Y-108660715D01*
X92589286Y-108589286D01*
X92589286Y-108410715D01*
X92625000Y-108339286D01*
X92660714Y-108303572D01*
X92732143Y-108267857D01*
X92803571Y-108267857D01*
X92910714Y-108303572D01*
X93339286Y-108732143D01*
X93339286Y-108267857D01*
X92589286Y-107625000D02*
X92589286Y-107767857D01*
X92625000Y-107839286D01*
X92660714Y-107875000D01*
X92767857Y-107946429D01*
X92910714Y-107982143D01*
X93196429Y-107982143D01*
X93267857Y-107946429D01*
X93303571Y-107910714D01*
X93339286Y-107839286D01*
X93339286Y-107696429D01*
X93303571Y-107625000D01*
X93267857Y-107589286D01*
X93196429Y-107553571D01*
X93017857Y-107553571D01*
X92946429Y-107589286D01*
X92910714Y-107625000D01*
X92875000Y-107696429D01*
X92875000Y-107839286D01*
X92910714Y-107910714D01*
X92946429Y-107946429D01*
X93017857Y-107982143D01*
X93339286Y-107232143D02*
X92589286Y-107232143D01*
X93125000Y-106982143D01*
X92589286Y-106732143D01*
X93339286Y-106732143D01*
X93339286Y-106375000D02*
X92589286Y-106375000D01*
X92946429Y-106375000D02*
X92946429Y-105946428D01*
X93339286Y-105946428D02*
X92589286Y-105946428D01*
X92839286Y-105660714D02*
X92839286Y-105267857D01*
X93339286Y-105660714D01*
X93339286Y-105267857D01*
D14*
X101459525Y-93226190D02*
X101292858Y-92988095D01*
X101173811Y-93226190D02*
X101173811Y-92726190D01*
X101364287Y-92726190D01*
X101411906Y-92750000D01*
X101435715Y-92773810D01*
X101459525Y-92821429D01*
X101459525Y-92892857D01*
X101435715Y-92940476D01*
X101411906Y-92964286D01*
X101364287Y-92988095D01*
X101173811Y-92988095D01*
X101673811Y-92964286D02*
X101840477Y-92964286D01*
X101911906Y-93226190D02*
X101673811Y-93226190D01*
X101673811Y-92726190D01*
X101911906Y-92726190D01*
X102054763Y-92726190D02*
X102221430Y-93226190D01*
X102388096Y-92726190D01*
X103197619Y-93226190D02*
X102911905Y-93226190D01*
X103054762Y-93226190D02*
X103054762Y-92726190D01*
X103007143Y-92797619D01*
X102959524Y-92845238D01*
X102911905Y-92869048D01*
X103411905Y-93226190D02*
X103411905Y-92726190D01*
X103411905Y-92916667D02*
X103459524Y-92892857D01*
X103554762Y-92892857D01*
X103602381Y-92916667D01*
X103626190Y-92940476D01*
X103650000Y-92988095D01*
X103650000Y-93130952D01*
X103626190Y-93178571D01*
X103602381Y-93202381D01*
X103554762Y-93226190D01*
X103459524Y-93226190D01*
X103411905Y-93202381D01*
D15*
X97114286Y-93252381D02*
X96780952Y-92776190D01*
X96542857Y-93252381D02*
X96542857Y-92252381D01*
X96923810Y-92252381D01*
X97019048Y-92300000D01*
X97066667Y-92347619D01*
X97114286Y-92442857D01*
X97114286Y-92585714D01*
X97066667Y-92680952D01*
X97019048Y-92728571D01*
X96923810Y-92776190D01*
X96542857Y-92776190D01*
X97971429Y-93252381D02*
X97971429Y-92728571D01*
X97923810Y-92633333D01*
X97828572Y-92585714D01*
X97638095Y-92585714D01*
X97542857Y-92633333D01*
X97971429Y-93204762D02*
X97876191Y-93252381D01*
X97638095Y-93252381D01*
X97542857Y-93204762D01*
X97495238Y-93109524D01*
X97495238Y-93014286D01*
X97542857Y-92919048D01*
X97638095Y-92871429D01*
X97876191Y-92871429D01*
X97971429Y-92823810D01*
X98876191Y-93252381D02*
X98876191Y-92252381D01*
X98876191Y-93204762D02*
X98780953Y-93252381D01*
X98590476Y-93252381D01*
X98495238Y-93204762D01*
X98447619Y-93157143D01*
X98400000Y-93061905D01*
X98400000Y-92776190D01*
X98447619Y-92680952D01*
X98495238Y-92633333D01*
X98590476Y-92585714D01*
X98780953Y-92585714D01*
X98876191Y-92633333D01*
X99352381Y-93252381D02*
X99352381Y-92585714D01*
X99352381Y-92252381D02*
X99304762Y-92300000D01*
X99352381Y-92347619D01*
X99400000Y-92300000D01*
X99352381Y-92252381D01*
X99352381Y-92347619D01*
X99971428Y-93252381D02*
X99876190Y-93204762D01*
X99828571Y-93157143D01*
X99780952Y-93061905D01*
X99780952Y-92776190D01*
X99828571Y-92680952D01*
X99876190Y-92633333D01*
X99971428Y-92585714D01*
X100114286Y-92585714D01*
X100209524Y-92633333D01*
X100257143Y-92680952D01*
X100304762Y-92776190D01*
X100304762Y-93061905D01*
X100257143Y-93157143D01*
X100209524Y-93204762D01*
X100114286Y-93252381D01*
X99971428Y-93252381D01*
X100000000Y-84300000D02*
X100000000Y-88050000D01*
X102500000Y-88300000D02*
X102500000Y-90050000D01*
X97500000Y-90050000D02*
X97500000Y-88300000D01*
X97023810Y-91752381D02*
X96690476Y-91276190D01*
X96452381Y-91752381D02*
X96452381Y-90752381D01*
X96833334Y-90752381D01*
X96928572Y-90800000D01*
X96976191Y-90847619D01*
X97023810Y-90942857D01*
X97023810Y-91085714D01*
X96976191Y-91180952D01*
X96928572Y-91228571D01*
X96833334Y-91276190D01*
X96452381Y-91276190D01*
X97642857Y-90752381D02*
X97833334Y-90752381D01*
X97928572Y-90800000D01*
X98023810Y-90895238D01*
X98071429Y-91085714D01*
X98071429Y-91419048D01*
X98023810Y-91609524D01*
X97928572Y-91704762D01*
X97833334Y-91752381D01*
X97642857Y-91752381D01*
X97547619Y-91704762D01*
X97452381Y-91609524D01*
X97404762Y-91419048D01*
X97404762Y-91085714D01*
X97452381Y-90895238D01*
X97547619Y-90800000D01*
X97642857Y-90752381D01*
X99071429Y-91657143D02*
X99023810Y-91704762D01*
X98880953Y-91752381D01*
X98785715Y-91752381D01*
X98642857Y-91704762D01*
X98547619Y-91609524D01*
X98500000Y-91514286D01*
X98452381Y-91323810D01*
X98452381Y-91180952D01*
X98500000Y-90990476D01*
X98547619Y-90895238D01*
X98642857Y-90800000D01*
X98785715Y-90752381D01*
X98880953Y-90752381D01*
X99023810Y-90800000D01*
X99071429Y-90847619D01*
X99500000Y-91752381D02*
X99500000Y-90752381D01*
X100071429Y-91752381D02*
X99642857Y-91180952D01*
X100071429Y-90752381D02*
X99500000Y-91323810D01*
X100500000Y-91228571D02*
X100833334Y-91228571D01*
X100976191Y-91752381D02*
X100500000Y-91752381D01*
X100500000Y-90752381D01*
X100976191Y-90752381D01*
X101261905Y-90752381D02*
X101833334Y-90752381D01*
X101547619Y-91752381D02*
X101547619Y-90752381D01*
X102738096Y-91752381D02*
X102404762Y-91276190D01*
X102166667Y-91752381D02*
X102166667Y-90752381D01*
X102547620Y-90752381D01*
X102642858Y-90800000D01*
X102690477Y-90847619D01*
X102738096Y-90942857D01*
X102738096Y-91085714D01*
X102690477Y-91180952D01*
X102642858Y-91228571D01*
X102547620Y-91276190D01*
X102166667Y-91276190D01*
X103357143Y-91276190D02*
X103357143Y-91752381D01*
X103023810Y-90752381D02*
X103357143Y-91276190D01*
X103690477Y-90752381D01*
D12*
X98142857Y-90157143D02*
X98357143Y-90228571D01*
X98714286Y-90228571D01*
X98857143Y-90157143D01*
X98928572Y-90085714D01*
X99000000Y-89942857D01*
X99000000Y-89800000D01*
X98928572Y-89657143D01*
X98857143Y-89585714D01*
X98714286Y-89514286D01*
X98428572Y-89442857D01*
X98285714Y-89371429D01*
X98214286Y-89300000D01*
X98142857Y-89157143D01*
X98142857Y-89014286D01*
X98214286Y-88871429D01*
X98285714Y-88800000D01*
X98428572Y-88728571D01*
X98785714Y-88728571D01*
X99000000Y-88800000D01*
X100142857Y-89442857D02*
X99642857Y-89442857D01*
X99642857Y-90228571D02*
X99642857Y-88728571D01*
X100357143Y-88728571D01*
X100928571Y-88728571D02*
X100928571Y-89942857D01*
X100999999Y-90085714D01*
X101071428Y-90157143D01*
X101214285Y-90228571D01*
X101499999Y-90228571D01*
X101642857Y-90157143D01*
X101714285Y-90085714D01*
X101785714Y-89942857D01*
X101785714Y-88728571D01*
D11*
X96000000Y-89050000D02*
X96000000Y-86550000D01*
X98500000Y-86550000D02*
X96000000Y-89050000D01*
X98500000Y-84550000D02*
X98500000Y-86550000D01*
X101500000Y-86550000D02*
X101500000Y-84550000D01*
X104000000Y-89050000D02*
X101500000Y-86550000D01*
X104000000Y-86550000D02*
X104000000Y-89050000D01*
X105500000Y-88050000D02*
X104000000Y-86550000D01*
X105500000Y-88050000D02*
X105500000Y-85550000D01*
X102500000Y-82550000D02*
X105500000Y-85550000D01*
X103500000Y-83550000D02*
X103250000Y-81800000D01*
X103250000Y-81800000D02*
X103000000Y-80050000D01*
X103000000Y-80050000D02*
X102750000Y-78800000D01*
X102250000Y-77050000D02*
X102750000Y-78800000D01*
X101750000Y-76050000D02*
X102250000Y-77050000D01*
X101000000Y-74800000D02*
X101750000Y-76050000D01*
X100000000Y-83050000D02*
X101500000Y-84550000D01*
X100000000Y-83050000D02*
X98500000Y-84550000D01*
X100000000Y-73550000D02*
X100000000Y-83050000D01*
X98250000Y-76050000D02*
X99000000Y-74800000D01*
X96500000Y-83550000D02*
X96750000Y-81800000D01*
X96750000Y-81800000D02*
X97000000Y-80050000D01*
X97000000Y-80050000D02*
X97250000Y-78800000D01*
X97250000Y-78800000D02*
X97750000Y-77050000D01*
X97750000Y-77050000D02*
X98250000Y-76050000D01*
X94500000Y-85550000D02*
X97500000Y-82550000D01*
X94500000Y-88050000D02*
X94500000Y-85550000D01*
X96000000Y-86550000D02*
X94500000Y-88050000D01*
D16*
X104780000Y-111950000D02*
X104780000Y-111450000D01*
X103720000Y-111450000D02*
X103720000Y-111950000D01*
X85970000Y-125880000D02*
X88630000Y-125880000D01*
X85970000Y-87720000D02*
X85970000Y-125880000D01*
X88630000Y-87720000D02*
X88630000Y-125880000D01*
X85970000Y-87720000D02*
X88630000Y-87720000D01*
X85970000Y-86450000D02*
X85970000Y-85120000D01*
X85970000Y-85120000D02*
X87300000Y-85120000D01*
X94850000Y-103650000D02*
X94850000Y-104050000D01*
X94850000Y-104050000D02*
X95650000Y-104050000D01*
X95650000Y-109450000D02*
X94850000Y-109450000D01*
X97050000Y-105850000D02*
X97050000Y-107650000D01*
X93450000Y-107650000D02*
X93450000Y-105850000D01*
X93450000Y-105850000D02*
X93210000Y-105850000D01*
X103220000Y-109750000D02*
X103220000Y-109250000D01*
X102280000Y-109250000D02*
X102280000Y-109750000D01*
X100280000Y-109250000D02*
X100280000Y-109750000D01*
X101220000Y-109750000D02*
X101220000Y-109250000D01*
X101800000Y-102370000D02*
X102300000Y-102370000D01*
X102300000Y-101430000D02*
X101800000Y-101430000D01*
X101800000Y-101370000D02*
X102300000Y-101370000D01*
X102300000Y-100430000D02*
X101800000Y-100430000D01*
X95500000Y-102280000D02*
X95000000Y-102280000D01*
X95000000Y-103220000D02*
X95500000Y-103220000D01*
X95000000Y-111220000D02*
X95500000Y-111220000D01*
X95500000Y-110280000D02*
X95000000Y-110280000D01*
X99720000Y-112050000D02*
X99720000Y-111550000D01*
X98780000Y-111550000D02*
X98780000Y-112050000D01*
X98700000Y-108670000D02*
X99200000Y-108670000D01*
X99200000Y-107730000D02*
X98700000Y-107730000D01*
X102530000Y-111450000D02*
X102530000Y-111950000D01*
X103470000Y-111950000D02*
X103470000Y-111450000D01*
X99470000Y-102450000D02*
X99470000Y-101950000D01*
X98530000Y-101950000D02*
X98530000Y-102450000D01*
X100470000Y-102450000D02*
X100470000Y-101950000D01*
X99530000Y-101950000D02*
X99530000Y-102450000D01*
X101280000Y-111450000D02*
X101280000Y-111950000D01*
X102220000Y-111950000D02*
X102220000Y-111450000D01*
X104800000Y-107780000D02*
X104300000Y-107780000D01*
X104300000Y-108720000D02*
X104800000Y-108720000D01*
X104780000Y-104700000D02*
X104780000Y-105200000D01*
X105720000Y-105200000D02*
X105720000Y-104700000D01*
X102800000Y-114780000D02*
X102300000Y-114780000D01*
X102300000Y-115720000D02*
X102800000Y-115720000D01*
X97530000Y-106000000D02*
X97530000Y-106500000D01*
X98470000Y-106500000D02*
X98470000Y-106000000D01*
X104800000Y-108780000D02*
X104300000Y-108780000D01*
X104300000Y-109720000D02*
X104800000Y-109720000D01*
X99970000Y-111450000D02*
X99970000Y-111950000D01*
X101030000Y-111950000D02*
X101030000Y-111450000D01*
X102280000Y-114000000D02*
X102280000Y-113500000D01*
X101220000Y-113500000D02*
X101220000Y-114000000D01*
D13*
X103250000Y-123500000D02*
X103250000Y-126500000D01*
X100250000Y-123500000D02*
X103250000Y-123500000D01*
X100250000Y-126500000D02*
X100250000Y-123500000D01*
X103250000Y-126500000D02*
X100250000Y-126500000D01*
D16*
X111370000Y-125880000D02*
X114030000Y-125880000D01*
X111370000Y-87720000D02*
X111370000Y-125880000D01*
X114030000Y-87720000D02*
X114030000Y-125880000D01*
X111370000Y-87720000D02*
X114030000Y-87720000D01*
X111370000Y-86450000D02*
X111370000Y-85120000D01*
X111370000Y-85120000D02*
X112700000Y-85120000D01*
X106780000Y-107200000D02*
X106780000Y-106700000D01*
X105720000Y-106700000D02*
X105720000Y-107200000D01*
D15*
X103600000Y-103000000D02*
G75*
G03X103600000Y-103000000I-100000J0D01*
G01*
X104100000Y-103400000D02*
X104100000Y-104100000D01*
X104100000Y-103400000D02*
X103300000Y-103400000D01*
X100700000Y-103400000D02*
X99900000Y-103400000D01*
X100700000Y-107600000D02*
X99900000Y-107600000D01*
X104100000Y-107600000D02*
X103300000Y-107600000D01*
X104100000Y-106900000D02*
X104100000Y-107600000D01*
X99900000Y-106900000D02*
X99900000Y-107600000D01*
X99900000Y-103400000D02*
X99900000Y-104100000D01*
D13*
X105375000Y-112089286D02*
X105017857Y-112089286D01*
X105017857Y-111339286D01*
X106017858Y-112089286D02*
X105589286Y-112089286D01*
X105803572Y-112089286D02*
X105803572Y-111339286D01*
X105732143Y-111446429D01*
X105660715Y-111517857D01*
X105589286Y-111553571D01*
X86850000Y-126089286D02*
X86850000Y-126625000D01*
X86814286Y-126732143D01*
X86742857Y-126803571D01*
X86635714Y-126839286D01*
X86564286Y-126839286D01*
X87171429Y-126160714D02*
X87207143Y-126125000D01*
X87278572Y-126089286D01*
X87457143Y-126089286D01*
X87528572Y-126125000D01*
X87564286Y-126160714D01*
X87600001Y-126232143D01*
X87600001Y-126303571D01*
X87564286Y-126410714D01*
X87135715Y-126839286D01*
X87600001Y-126839286D01*
X103875000Y-110517857D02*
X103839286Y-110553571D01*
X103732143Y-110589286D01*
X103660714Y-110589286D01*
X103553571Y-110553571D01*
X103482143Y-110482143D01*
X103446428Y-110410714D01*
X103410714Y-110267857D01*
X103410714Y-110160714D01*
X103446428Y-110017857D01*
X103482143Y-109946429D01*
X103553571Y-109875000D01*
X103660714Y-109839286D01*
X103732143Y-109839286D01*
X103839286Y-109875000D01*
X103875000Y-109910714D01*
X104589286Y-110589286D02*
X104160714Y-110589286D01*
X104375000Y-110589286D02*
X104375000Y-109839286D01*
X104303571Y-109946429D01*
X104232143Y-110017857D01*
X104160714Y-110053571D01*
X99125000Y-110517857D02*
X99089286Y-110553571D01*
X98982143Y-110589286D01*
X98910714Y-110589286D01*
X98803571Y-110553571D01*
X98732143Y-110482143D01*
X98696428Y-110410714D01*
X98660714Y-110267857D01*
X98660714Y-110160714D01*
X98696428Y-110017857D01*
X98732143Y-109946429D01*
X98803571Y-109875000D01*
X98910714Y-109839286D01*
X98982143Y-109839286D01*
X99089286Y-109875000D01*
X99125000Y-109910714D01*
X99410714Y-109910714D02*
X99446428Y-109875000D01*
X99517857Y-109839286D01*
X99696428Y-109839286D01*
X99767857Y-109875000D01*
X99803571Y-109910714D01*
X99839286Y-109982143D01*
X99839286Y-110053571D01*
X99803571Y-110160714D01*
X99375000Y-110589286D01*
X99839286Y-110589286D01*
X103875000Y-102167857D02*
X103839286Y-102203571D01*
X103732143Y-102239286D01*
X103660714Y-102239286D01*
X103553571Y-102203571D01*
X103482143Y-102132143D01*
X103446428Y-102060714D01*
X103410714Y-101917857D01*
X103410714Y-101810714D01*
X103446428Y-101667857D01*
X103482143Y-101596429D01*
X103553571Y-101525000D01*
X103660714Y-101489286D01*
X103732143Y-101489286D01*
X103839286Y-101525000D01*
X103875000Y-101560714D01*
X104125000Y-101489286D02*
X104589286Y-101489286D01*
X104339286Y-101775000D01*
X104446428Y-101775000D01*
X104517857Y-101810714D01*
X104553571Y-101846429D01*
X104589286Y-101917857D01*
X104589286Y-102096429D01*
X104553571Y-102167857D01*
X104517857Y-102203571D01*
X104446428Y-102239286D01*
X104232143Y-102239286D01*
X104160714Y-102203571D01*
X104125000Y-102167857D01*
X103875000Y-101167857D02*
X103839286Y-101203571D01*
X103732143Y-101239286D01*
X103660714Y-101239286D01*
X103553571Y-101203571D01*
X103482143Y-101132143D01*
X103446428Y-101060714D01*
X103410714Y-100917857D01*
X103410714Y-100810714D01*
X103446428Y-100667857D01*
X103482143Y-100596429D01*
X103553571Y-100525000D01*
X103660714Y-100489286D01*
X103732143Y-100489286D01*
X103839286Y-100525000D01*
X103875000Y-100560714D01*
X104517857Y-100739286D02*
X104517857Y-101239286D01*
X104339286Y-100453571D02*
X104160714Y-100989286D01*
X104625000Y-100989286D01*
X93375000Y-103017857D02*
X93339286Y-103053571D01*
X93232143Y-103089286D01*
X93160714Y-103089286D01*
X93053571Y-103053571D01*
X92982143Y-102982143D01*
X92946428Y-102910714D01*
X92910714Y-102767857D01*
X92910714Y-102660714D01*
X92946428Y-102517857D01*
X92982143Y-102446429D01*
X93053571Y-102375000D01*
X93160714Y-102339286D01*
X93232143Y-102339286D01*
X93339286Y-102375000D01*
X93375000Y-102410714D01*
X94053571Y-102339286D02*
X93696428Y-102339286D01*
X93660714Y-102696429D01*
X93696428Y-102660714D01*
X93767857Y-102625000D01*
X93946428Y-102625000D01*
X94017857Y-102660714D01*
X94053571Y-102696429D01*
X94089286Y-102767857D01*
X94089286Y-102946429D01*
X94053571Y-103017857D01*
X94017857Y-103053571D01*
X93946428Y-103089286D01*
X93767857Y-103089286D01*
X93696428Y-103053571D01*
X93660714Y-103017857D01*
X93375000Y-111017857D02*
X93339286Y-111053571D01*
X93232143Y-111089286D01*
X93160714Y-111089286D01*
X93053571Y-111053571D01*
X92982143Y-110982143D01*
X92946428Y-110910714D01*
X92910714Y-110767857D01*
X92910714Y-110660714D01*
X92946428Y-110517857D01*
X92982143Y-110446429D01*
X93053571Y-110375000D01*
X93160714Y-110339286D01*
X93232143Y-110339286D01*
X93339286Y-110375000D01*
X93375000Y-110410714D01*
X94017857Y-110339286D02*
X93875000Y-110339286D01*
X93803571Y-110375000D01*
X93767857Y-110410714D01*
X93696428Y-110517857D01*
X93660714Y-110660714D01*
X93660714Y-110946429D01*
X93696428Y-111017857D01*
X93732143Y-111053571D01*
X93803571Y-111089286D01*
X93946428Y-111089286D01*
X94017857Y-111053571D01*
X94053571Y-111017857D01*
X94089286Y-110946429D01*
X94089286Y-110767857D01*
X94053571Y-110696429D01*
X94017857Y-110660714D01*
X93946428Y-110625000D01*
X93803571Y-110625000D01*
X93732143Y-110660714D01*
X93696428Y-110696429D01*
X93660714Y-110767857D01*
X97875000Y-112017857D02*
X97839286Y-112053571D01*
X97732143Y-112089286D01*
X97660714Y-112089286D01*
X97553571Y-112053571D01*
X97482143Y-111982143D01*
X97446428Y-111910714D01*
X97410714Y-111767857D01*
X97410714Y-111660714D01*
X97446428Y-111517857D01*
X97482143Y-111446429D01*
X97553571Y-111375000D01*
X97660714Y-111339286D01*
X97732143Y-111339286D01*
X97839286Y-111375000D01*
X97875000Y-111410714D01*
X98125000Y-111339286D02*
X98625000Y-111339286D01*
X98303571Y-112089286D01*
X99125000Y-109517857D02*
X99089286Y-109553571D01*
X98982143Y-109589286D01*
X98910714Y-109589286D01*
X98803571Y-109553571D01*
X98732143Y-109482143D01*
X98696428Y-109410714D01*
X98660714Y-109267857D01*
X98660714Y-109160714D01*
X98696428Y-109017857D01*
X98732143Y-108946429D01*
X98803571Y-108875000D01*
X98910714Y-108839286D01*
X98982143Y-108839286D01*
X99089286Y-108875000D01*
X99125000Y-108910714D01*
X99553571Y-109160714D02*
X99482143Y-109125000D01*
X99446428Y-109089286D01*
X99410714Y-109017857D01*
X99410714Y-108982143D01*
X99446428Y-108910714D01*
X99482143Y-108875000D01*
X99553571Y-108839286D01*
X99696428Y-108839286D01*
X99767857Y-108875000D01*
X99803571Y-108910714D01*
X99839286Y-108982143D01*
X99839286Y-109017857D01*
X99803571Y-109089286D01*
X99767857Y-109125000D01*
X99696428Y-109160714D01*
X99553571Y-109160714D01*
X99482143Y-109196429D01*
X99446428Y-109232143D01*
X99410714Y-109303571D01*
X99410714Y-109446429D01*
X99446428Y-109517857D01*
X99482143Y-109553571D01*
X99553571Y-109589286D01*
X99696428Y-109589286D01*
X99767857Y-109553571D01*
X99803571Y-109517857D01*
X99839286Y-109446429D01*
X99839286Y-109303571D01*
X99803571Y-109232143D01*
X99767857Y-109196429D01*
X99696428Y-109160714D01*
X102875000Y-113517857D02*
X102839286Y-113553571D01*
X102732143Y-113589286D01*
X102660714Y-113589286D01*
X102553571Y-113553571D01*
X102482143Y-113482143D01*
X102446428Y-113410714D01*
X102410714Y-113267857D01*
X102410714Y-113160714D01*
X102446428Y-113017857D01*
X102482143Y-112946429D01*
X102553571Y-112875000D01*
X102660714Y-112839286D01*
X102732143Y-112839286D01*
X102839286Y-112875000D01*
X102875000Y-112910714D01*
X103232143Y-113589286D02*
X103375000Y-113589286D01*
X103446428Y-113553571D01*
X103482143Y-113517857D01*
X103553571Y-113410714D01*
X103589286Y-113267857D01*
X103589286Y-112982143D01*
X103553571Y-112910714D01*
X103517857Y-112875000D01*
X103446428Y-112839286D01*
X103303571Y-112839286D01*
X103232143Y-112875000D01*
X103196428Y-112910714D01*
X103160714Y-112982143D01*
X103160714Y-113160714D01*
X103196428Y-113232143D01*
X103232143Y-113267857D01*
X103303571Y-113303571D01*
X103446428Y-113303571D01*
X103517857Y-113267857D01*
X103553571Y-113232143D01*
X103589286Y-113160714D01*
X97267857Y-101982143D02*
X97303571Y-102017857D01*
X97339286Y-102125000D01*
X97339286Y-102196429D01*
X97303571Y-102303572D01*
X97232143Y-102375000D01*
X97160714Y-102410715D01*
X97017857Y-102446429D01*
X96910714Y-102446429D01*
X96767857Y-102410715D01*
X96696429Y-102375000D01*
X96625000Y-102303572D01*
X96589286Y-102196429D01*
X96589286Y-102125000D01*
X96625000Y-102017857D01*
X96660714Y-101982143D01*
X97339286Y-101267857D02*
X97339286Y-101696429D01*
X97339286Y-101482143D02*
X96589286Y-101482143D01*
X96696429Y-101553572D01*
X96767857Y-101625000D01*
X96803571Y-101696429D01*
X96589286Y-100803571D02*
X96589286Y-100732143D01*
X96625000Y-100660714D01*
X96660714Y-100625000D01*
X96732143Y-100589286D01*
X96875000Y-100553571D01*
X97053571Y-100553571D01*
X97196429Y-100589286D01*
X97267857Y-100625000D01*
X97303571Y-100660714D01*
X97339286Y-100732143D01*
X97339286Y-100803571D01*
X97303571Y-100875000D01*
X97267857Y-100910714D01*
X97196429Y-100946429D01*
X97053571Y-100982143D01*
X96875000Y-100982143D01*
X96732143Y-100946429D01*
X96660714Y-100910714D01*
X96625000Y-100875000D01*
X96589286Y-100803571D01*
X98267857Y-101982143D02*
X98303571Y-102017857D01*
X98339286Y-102125000D01*
X98339286Y-102196429D01*
X98303571Y-102303572D01*
X98232143Y-102375000D01*
X98160714Y-102410715D01*
X98017857Y-102446429D01*
X97910714Y-102446429D01*
X97767857Y-102410715D01*
X97696429Y-102375000D01*
X97625000Y-102303572D01*
X97589286Y-102196429D01*
X97589286Y-102125000D01*
X97625000Y-102017857D01*
X97660714Y-101982143D01*
X98339286Y-101267857D02*
X98339286Y-101696429D01*
X98339286Y-101482143D02*
X97589286Y-101482143D01*
X97696429Y-101553572D01*
X97767857Y-101625000D01*
X97803571Y-101696429D01*
X98339286Y-100553571D02*
X98339286Y-100982143D01*
X98339286Y-100767857D02*
X97589286Y-100767857D01*
X97696429Y-100839286D01*
X97767857Y-100910714D01*
X97803571Y-100982143D01*
X102017857Y-109482143D02*
X102053571Y-109517857D01*
X102089286Y-109625000D01*
X102089286Y-109696429D01*
X102053571Y-109803572D01*
X101982143Y-109875000D01*
X101910714Y-109910715D01*
X101767857Y-109946429D01*
X101660714Y-109946429D01*
X101517857Y-109910715D01*
X101446429Y-109875000D01*
X101375000Y-109803572D01*
X101339286Y-109696429D01*
X101339286Y-109625000D01*
X101375000Y-109517857D01*
X101410714Y-109482143D01*
X102089286Y-108767857D02*
X102089286Y-109196429D01*
X102089286Y-108982143D02*
X101339286Y-108982143D01*
X101446429Y-109053572D01*
X101517857Y-109125000D01*
X101553571Y-109196429D01*
X101410714Y-108482143D02*
X101375000Y-108446429D01*
X101339286Y-108375000D01*
X101339286Y-108196429D01*
X101375000Y-108125000D01*
X101410714Y-108089286D01*
X101482143Y-108053571D01*
X101553571Y-108053571D01*
X101660714Y-108089286D01*
X102089286Y-108517857D01*
X102089286Y-108053571D01*
X106017857Y-108517857D02*
X105982143Y-108553571D01*
X105875000Y-108589286D01*
X105803571Y-108589286D01*
X105696428Y-108553571D01*
X105625000Y-108482143D01*
X105589285Y-108410714D01*
X105553571Y-108267857D01*
X105553571Y-108160714D01*
X105589285Y-108017857D01*
X105625000Y-107946429D01*
X105696428Y-107875000D01*
X105803571Y-107839286D01*
X105875000Y-107839286D01*
X105982143Y-107875000D01*
X106017857Y-107910714D01*
X106732143Y-108589286D02*
X106303571Y-108589286D01*
X106517857Y-108589286D02*
X106517857Y-107839286D01*
X106446428Y-107946429D01*
X106375000Y-108017857D01*
X106303571Y-108053571D01*
X106982143Y-107839286D02*
X107446429Y-107839286D01*
X107196429Y-108125000D01*
X107303571Y-108125000D01*
X107375000Y-108160714D01*
X107410714Y-108196429D01*
X107446429Y-108267857D01*
X107446429Y-108446429D01*
X107410714Y-108517857D01*
X107375000Y-108553571D01*
X107303571Y-108589286D01*
X107089286Y-108589286D01*
X107017857Y-108553571D01*
X106982143Y-108517857D01*
X106417857Y-105567857D02*
X106382143Y-105603571D01*
X106275000Y-105639286D01*
X106203571Y-105639286D01*
X106096428Y-105603571D01*
X106025000Y-105532143D01*
X105989285Y-105460714D01*
X105953571Y-105317857D01*
X105953571Y-105210714D01*
X105989285Y-105067857D01*
X106025000Y-104996429D01*
X106096428Y-104925000D01*
X106203571Y-104889286D01*
X106275000Y-104889286D01*
X106382143Y-104925000D01*
X106417857Y-104960714D01*
X107132143Y-105639286D02*
X106703571Y-105639286D01*
X106917857Y-105639286D02*
X106917857Y-104889286D01*
X106846428Y-104996429D01*
X106775000Y-105067857D01*
X106703571Y-105103571D01*
X107775000Y-105139286D02*
X107775000Y-105639286D01*
X107596429Y-104853571D02*
X107417857Y-105389286D01*
X107882143Y-105389286D01*
X99517857Y-115267857D02*
X99482143Y-115303571D01*
X99375000Y-115339286D01*
X99303571Y-115339286D01*
X99196428Y-115303571D01*
X99125000Y-115232143D01*
X99089285Y-115160714D01*
X99053571Y-115017857D01*
X99053571Y-114910714D01*
X99089285Y-114767857D01*
X99125000Y-114696429D01*
X99196428Y-114625000D01*
X99303571Y-114589286D01*
X99375000Y-114589286D01*
X99482143Y-114625000D01*
X99517857Y-114660714D01*
X100232143Y-115339286D02*
X99803571Y-115339286D01*
X100017857Y-115339286D02*
X100017857Y-114589286D01*
X99946428Y-114696429D01*
X99875000Y-114767857D01*
X99803571Y-114803571D01*
X100910714Y-114589286D02*
X100553571Y-114589286D01*
X100517857Y-114946429D01*
X100553571Y-114910714D01*
X100625000Y-114875000D01*
X100803571Y-114875000D01*
X100875000Y-114910714D01*
X100910714Y-114946429D01*
X100946429Y-115017857D01*
X100946429Y-115196429D01*
X100910714Y-115267857D01*
X100875000Y-115303571D01*
X100803571Y-115339286D01*
X100625000Y-115339286D01*
X100553571Y-115303571D01*
X100517857Y-115267857D01*
X99267857Y-106732143D02*
X99303571Y-106767857D01*
X99339286Y-106875000D01*
X99339286Y-106946429D01*
X99303571Y-107053572D01*
X99232143Y-107125000D01*
X99160714Y-107160715D01*
X99017857Y-107196429D01*
X98910714Y-107196429D01*
X98767857Y-107160715D01*
X98696429Y-107125000D01*
X98625000Y-107053572D01*
X98589286Y-106946429D01*
X98589286Y-106875000D01*
X98625000Y-106767857D01*
X98660714Y-106732143D01*
X99339286Y-106017857D02*
X99339286Y-106446429D01*
X99339286Y-106232143D02*
X98589286Y-106232143D01*
X98696429Y-106303572D01*
X98767857Y-106375000D01*
X98803571Y-106446429D01*
X98589286Y-105375000D02*
X98589286Y-105517857D01*
X98625000Y-105589286D01*
X98660714Y-105625000D01*
X98767857Y-105696429D01*
X98910714Y-105732143D01*
X99196429Y-105732143D01*
X99267857Y-105696429D01*
X99303571Y-105660714D01*
X99339286Y-105589286D01*
X99339286Y-105446429D01*
X99303571Y-105375000D01*
X99267857Y-105339286D01*
X99196429Y-105303571D01*
X99017857Y-105303571D01*
X98946429Y-105339286D01*
X98910714Y-105375000D01*
X98875000Y-105446429D01*
X98875000Y-105589286D01*
X98910714Y-105660714D01*
X98946429Y-105696429D01*
X99017857Y-105732143D01*
X106017857Y-109517857D02*
X105982143Y-109553571D01*
X105875000Y-109589286D01*
X105803571Y-109589286D01*
X105696428Y-109553571D01*
X105625000Y-109482143D01*
X105589285Y-109410714D01*
X105553571Y-109267857D01*
X105553571Y-109160714D01*
X105589285Y-109017857D01*
X105625000Y-108946429D01*
X105696428Y-108875000D01*
X105803571Y-108839286D01*
X105875000Y-108839286D01*
X105982143Y-108875000D01*
X106017857Y-108910714D01*
X106732143Y-109589286D02*
X106303571Y-109589286D01*
X106517857Y-109589286D02*
X106517857Y-108839286D01*
X106446428Y-108946429D01*
X106375000Y-109017857D01*
X106303571Y-109053571D01*
X106982143Y-108839286D02*
X107482143Y-108839286D01*
X107160714Y-109589286D01*
X100375000Y-113589286D02*
X100017857Y-113589286D01*
X100017857Y-112839286D01*
X100589286Y-112910714D02*
X100625000Y-112875000D01*
X100696429Y-112839286D01*
X100875000Y-112839286D01*
X100946429Y-112875000D01*
X100982143Y-112910714D01*
X101017858Y-112982143D01*
X101017858Y-113053571D01*
X100982143Y-113160714D01*
X100553572Y-113589286D01*
X101017858Y-113589286D01*
X102875000Y-114589286D02*
X102517857Y-114589286D01*
X102517857Y-113839286D01*
X103053572Y-113839286D02*
X103517858Y-113839286D01*
X103267858Y-114125000D01*
X103375000Y-114125000D01*
X103446429Y-114160714D01*
X103482143Y-114196429D01*
X103517858Y-114267857D01*
X103517858Y-114446429D01*
X103482143Y-114517857D01*
X103446429Y-114553571D01*
X103375000Y-114589286D01*
X103160715Y-114589286D01*
X103089286Y-114553571D01*
X103053572Y-114517857D01*
X98928571Y-126339286D02*
X98928571Y-126946429D01*
X98964286Y-127017857D01*
X99000000Y-127053571D01*
X99071429Y-127089286D01*
X99214286Y-127089286D01*
X99285714Y-127053571D01*
X99321429Y-127017857D01*
X99357143Y-126946429D01*
X99357143Y-126339286D01*
X99678571Y-126410714D02*
X99714285Y-126375000D01*
X99785714Y-126339286D01*
X99964285Y-126339286D01*
X100035714Y-126375000D01*
X100071428Y-126410714D01*
X100107143Y-126482143D01*
X100107143Y-126553571D01*
X100071428Y-126660714D01*
X99642857Y-127089286D01*
X100107143Y-127089286D01*
X112450000Y-126089286D02*
X112450000Y-126625000D01*
X112414286Y-126732143D01*
X112342857Y-126803571D01*
X112235714Y-126839286D01*
X112164286Y-126839286D01*
X113200001Y-126839286D02*
X112771429Y-126839286D01*
X112985715Y-126839286D02*
X112985715Y-126089286D01*
X112914286Y-126196429D01*
X112842858Y-126267857D01*
X112771429Y-126303571D01*
X104875000Y-107339286D02*
X104625000Y-106982143D01*
X104446428Y-107339286D02*
X104446428Y-106589286D01*
X104732143Y-106589286D01*
X104803571Y-106625000D01*
X104839286Y-106660714D01*
X104875000Y-106732143D01*
X104875000Y-106839286D01*
X104839286Y-106910714D01*
X104803571Y-106946429D01*
X104732143Y-106982143D01*
X104446428Y-106982143D01*
X105589286Y-107339286D02*
X105160714Y-107339286D01*
X105375000Y-107339286D02*
X105375000Y-106589286D01*
X105303571Y-106696429D01*
X105232143Y-106767857D01*
X105160714Y-106803571D01*
X104428571Y-103089286D02*
X104428571Y-103696429D01*
X104464286Y-103767857D01*
X104500000Y-103803571D01*
X104571429Y-103839286D01*
X104714286Y-103839286D01*
X104785714Y-103803571D01*
X104821429Y-103767857D01*
X104857143Y-103696429D01*
X104857143Y-103089286D01*
X105607143Y-103839286D02*
X105178571Y-103839286D01*
X105392857Y-103839286D02*
X105392857Y-103089286D01*
X105321428Y-103196429D01*
X105250000Y-103267857D01*
X105178571Y-103303571D01*
M02*
