G04 #@! TF.FileFunction,Paste,Top*
%FSLAX46Y46*%
G04 Gerber Fmt 4.6, Leading zero omitted, Abs format (unit mm)*
G04 Created by KiCad (PCBNEW 4.0.7) date 07/17/18 20:37:52*
%MOMM*%
%LPD*%
G01*
G04 APERTURE LIST*
%ADD10C,0.100000*%
%ADD11R,1.200000X1.800000*%
%ADD12R,0.500000X0.600000*%
%ADD13R,0.600000X0.500000*%
%ADD14R,0.400000X0.600000*%
%ADD15R,0.600000X0.400000*%
%ADD16R,1.050000X2.200000*%
%ADD17R,1.000000X1.000000*%
%ADD18R,0.760000X0.280000*%
%ADD19R,0.280000X0.760000*%
G04 APERTURE END LIST*
D10*
D11*
X90800000Y-106000000D03*
X90800000Y-110000000D03*
X93200000Y-110000000D03*
X93200000Y-106000000D03*
D12*
X100375000Y-110950000D03*
X100375000Y-112050000D03*
X99125000Y-112050000D03*
X99125000Y-110950000D03*
D13*
X99250000Y-102750000D03*
X100350000Y-102750000D03*
X99250000Y-103750000D03*
X100350000Y-103750000D03*
D12*
X95000000Y-106550000D03*
X95000000Y-105450000D03*
X95000000Y-110550000D03*
X95000000Y-109450000D03*
D13*
X99125000Y-113250000D03*
X98025000Y-113250000D03*
X97500000Y-110200000D03*
X96400000Y-110200000D03*
D12*
X100375000Y-115750000D03*
X100375000Y-114650000D03*
X97000000Y-103650000D03*
X97000000Y-104750000D03*
X98000000Y-103650000D03*
X98000000Y-104750000D03*
D13*
X100000000Y-117000000D03*
X98900000Y-117000000D03*
X102000000Y-110250000D03*
X103100000Y-110250000D03*
D12*
X103250000Y-107500000D03*
X103250000Y-106400000D03*
D13*
X100000000Y-120500000D03*
X98900000Y-120500000D03*
X96550000Y-108250000D03*
X95450000Y-108250000D03*
X102000000Y-111250000D03*
X103100000Y-111250000D03*
D14*
X100411805Y-113250000D03*
X101311805Y-113250000D03*
D15*
X99125000Y-115750000D03*
X99125000Y-114850000D03*
X100000000Y-118300000D03*
X100000000Y-119200000D03*
D16*
X98525000Y-123750000D03*
X101475000Y-123750000D03*
D17*
X100000000Y-122150000D03*
D15*
X104250000Y-108500000D03*
X104250000Y-109400000D03*
D18*
X98220000Y-108500000D03*
X98220000Y-108000000D03*
X98220000Y-107500000D03*
X98220000Y-107000000D03*
X98220000Y-106500000D03*
D19*
X99000000Y-105720000D03*
X100500000Y-105720000D03*
X99500000Y-105720000D03*
X101000000Y-105720000D03*
D10*
G36*
X98860000Y-109660000D02*
X98860000Y-108900000D01*
X99140000Y-108900000D01*
X99140000Y-109660000D01*
X98860000Y-109660000D01*
X98860000Y-109660000D01*
G37*
D19*
X99500000Y-109280000D03*
X100000000Y-109280000D03*
X100500000Y-109280000D03*
X101000000Y-109280000D03*
D18*
X101780000Y-108500000D03*
X101780000Y-108000000D03*
X101780000Y-107500000D03*
X101780000Y-107000000D03*
X101780000Y-106500000D03*
D19*
X100000000Y-105720000D03*
D15*
X100000000Y-108300000D03*
X100000000Y-106700000D03*
D14*
X100800000Y-107500000D03*
X99200000Y-107500000D03*
M02*
